<?xml version="1.0" encoding="utf-8"?>
<!-- Generator: Adobe Illustrator 25.4.1, SVG Export Plug-In . SVG Version: 6.00 Build 0)  -->
<svg version="1.1" xmlns="http://www.w3.org/2000/svg" xmlns:xlink="http://www.w3.org/1999/xlink" x="0px" y="0px"
	 viewBox="0 0 500 500" style="enable-background:new 0 0 500 500;" xml:space="preserve">
<style type="text/css">
	.st0{fill:#EBEBEB;}
	.st1{fill:#E0E0E0;}
	.st2{fill:#F0F0F0;}
	.st3{fill:#F0F0F0;stroke:#E0E0E0;stroke-width:2;stroke-linecap:round;stroke-linejoin:round;stroke-miterlimit:10;}
	.st4{fill:#E6E6E6;}
	.st5{fill:#FFFFFF;}
	.st6{display:none;}
	.st7{display:inline;}
	.st8{fill:#407BFF;}
	.st9{opacity:0.9;fill:#FFFFFF;enable-background:new    ;}
	.st10{fill:#F5F5F5;}
	.st11{opacity:0.8;fill:#FFFFFF;enable-background:new    ;}
	.st12{opacity:0.3;fill:#FFFFFF;enable-background:new    ;}
	.st13{opacity:0.2;enable-background:new    ;}
	.st14{fill:#263238;}
	.st15{opacity:0.6;fill:#FFFFFF;enable-background:new    ;}
	.st16{opacity:0.4;fill:#FFFFFF;enable-background:new    ;}
	.st17{opacity:0.2;fill:#FFFFFF;enable-background:new    ;}
	.st18{fill:#E4897B;}
	.st19{fill:#2E353A;}
	.st20{opacity:0.1;enable-background:new    ;}
	.st21{opacity:0.1;fill:#FFFFFF;enable-background:new    ;}
	.st22{opacity:0.3;enable-background:new    ;}
	.st23{opacity:0.5;fill:#FFFFFF;}
	.st24{fill:#DE5753;}
	.st25{fill:none;stroke:#263238;stroke-width:0.7247;stroke-linecap:round;stroke-linejoin:round;stroke-miterlimit:10;}
	.st26{opacity:0.3;}
	.st27{fill:none;stroke:#263238;stroke-width:0.5;stroke-linecap:round;stroke-linejoin:round;stroke-miterlimit:10;}
	.st28{opacity:0.5;fill:#FFFFFF;enable-background:new    ;}
</style>
<g id="Background_Complete">
	<g>
		<rect y="382.4" class="st0" width="500" height="0.25"/>
		<rect x="416.78" y="398.49" class="st0" width="33.12" height="0.25"/>
		<rect x="322.53" y="401.21" class="st0" width="8.69" height="0.25"/>
		<rect x="396.59" y="389.21" class="st0" width="19.19" height="0.25"/>
		<rect x="52.46" y="390.89" class="st0" width="43.19" height="0.25"/>
		<rect x="104.56" y="390.89" class="st0" width="6.33" height="0.25"/>
		<rect x="131.47" y="395.11" class="st0" width="93.68" height="0.25"/>
		<path class="st0" d="M237.01,337.8H43.92c-3.15,0-5.71-2.56-5.71-5.71V60.66c0-3.15,2.56-5.71,5.71-5.71h193.1
			c3.15,0,5.71,2.56,5.71,5.71v271.43C242.72,335.24,240.16,337.8,237.01,337.8z M43.92,55.2c-3.01,0-5.46,2.45-5.46,5.46v271.43
			c0,3.01,2.45,5.46,5.46,5.46h193.1c3.01,0,5.46-2.45,5.46-5.46V60.66c0-3.01-2.45-5.46-5.46-5.46H43.92z"/>
		<path class="st0" d="M453.31,337.8h-193.1c-3.15,0-5.71-2.56-5.71-5.71V60.66c0-3.15,2.56-5.71,5.71-5.71h193.1
			c3.15,0,5.71,2.56,5.71,5.71v271.43C459.02,335.24,456.46,337.8,453.31,337.8z M260.21,55.2c-3.01,0-5.46,2.45-5.46,5.46v271.43
			c0,3.01,2.45,5.46,5.46,5.46h193.1c3.01,0,5.46-2.45,5.46-5.46V60.66c0-3.01-2.45-5.46-5.46-5.46H260.21z"/>
	</g>
	<g>
		<g>
			
				<ellipse transform="matrix(0.9732 -0.2298 0.2298 0.9732 -15.6299 45.0978)" class="st1" cx="185.85" cy="89.67" rx="23.55" ry="23.55"/>
			
				<ellipse transform="matrix(0.9871 -0.1602 0.1602 0.9871 -11.9635 30.9274)" class="st2" cx="185.85" cy="89.67" rx="20.03" ry="20.03"/>
			<polyline class="st3" points="186.79,75.93 186.79,89.93 196.07,84.68 			"/>
		</g>
		<g>
			<g>
				<g>
					<path class="st1" d="M73.78,345.28c0.01-0.4,1.34-39.68,7.73-45.89c6.21-6.04,13.35-0.22,13.65,0.03l0.64-0.77
						c-0.08-0.07-8.13-6.64-14.98,0.03c-6.68,6.49-7.98,44.94-8.03,46.57L73.78,345.28z"/>
				</g>
				<g>
					<path class="st1" d="M73.24,353c0.05-0.47,4.37-47.16-12.68-66.72l-0.75,0.66c16.77,19.24,12.49,65.5,12.44,65.97L73.24,353z"
						/>
				</g>
				<g>
					<path class="st1" d="M73.87,348.06l1-0.07c-0.04-0.53-3.34-53.08,9.17-64.58l-0.68-0.74C70.5,294.51,73.72,345.88,73.87,348.06
						z"/>
				</g>
				<g>
					<path class="st1" d="M72.24,348.03l1-0.01c-0.01-1.45-0.41-35.49-10.08-41.04c-2.15-1.23-4.25-1.44-6.26-0.61
						c-5.85,2.42-8.75,12.83-8.87,13.27l0.96,0.26c0.03-0.1,2.89-10.38,8.28-12.61c1.7-0.7,3.51-0.52,5.38,0.55
						C71.84,313.11,72.24,347.68,72.24,348.03z"/>
				</g>
				<g>
					<path class="st1" d="M76.01,348.06l1-0.06c-0.02-0.27-1.46-26.9,5.73-36.29c1.74-2.27,3.63-3.36,5.63-3.22
						c4.71,0.33,8.66,7.22,8.7,7.29l0.87-0.49c-0.17-0.3-4.25-7.43-9.5-7.8c-2.35-0.17-4.54,1.05-6.5,3.61
						C74.52,320.78,75.94,346.95,76.01,348.06z"/>
				</g>
				<g>
					<path class="st1" d="M74.43,351.68c0.2-2.58,4.7-63.4-3.22-74.12l-0.8,0.59c7.7,10.42,3.08,72.82,3.03,73.45L74.43,351.68z"/>
				</g>
			</g>
			<g>
				<path class="st0" d="M54.74,312.54c0,0,4.75,1.75,3.34,5.89c-1.41,4.14-16.44,10.95-16.44,10.95s-6.3-5.77-0.51-15.15
					C46.91,304.84,54.61,309.58,54.74,312.54z"/>
			</g>
			<g>
				<path class="st0" d="M75.41,304.67c0,0-5.06-0.21-5.35,4.15c-0.29,4.36,10.97,16.43,10.97,16.43s8.03-2.9,6.31-13.79
					C85.61,300.57,76.67,301.98,75.41,304.67z"/>
			</g>
			<g>
				<path class="st0" d="M79.69,283.78c0,0-3.37-0.36-3.1-2.42s13.12-7.35,20.7,1.21c0,0-4.85,8.34-11.87,8.45
					C78.4,291.13,79.69,283.78,79.69,283.78z"/>
			</g>
			<g>
				<path class="st0" d="M73.4,278.79c0,0,3.06,1.48,3.91-0.41c0.86-1.89-7.25-13.17-18.21-9.92c0,0-0.29,9.64,5.61,13.45
					C70.61,285.71,73.4,278.79,73.4,278.79z"/>
			</g>
			<g>
				<path class="st0" d="M89.38,310.88c0,0-2.33-1.88,0.18-2.8c2.51-0.92,14.85-0.66,14.98,11.56c0,0-14.36,2.39-16.14-2.27
					C86.62,312.72,89.38,310.88,89.38,310.88z"/>
			</g>
			<g>
				<path class="st0" d="M60.09,283.48c0,0,2.33-1.88-0.18-2.8c-2.51-0.92-14.85-0.66-14.98,11.56c0,0,14.36,2.39,16.14-2.27
					C62.85,285.32,60.09,283.48,60.09,283.48z"/>
			</g>
			<g>
				<path class="st0" d="M67.69,293.32c0,0,0.2-2.29-1.64-1.39c-1.85,0.9-8.28,7.83-1.61,14.41c0,0,8.97-6.64,7.35-10.1
					C70.17,292.78,67.69,293.32,67.69,293.32z"/>
			</g>
			<g>
				<path class="st0" d="M91.47,296.58c0,0-1.39-1.82,0.65-2.05c2.04-0.23,11.18,2.21,9.05,11.34c0,0-11.13-0.84-11.61-4.63
					C89.07,297.45,91.47,296.58,91.47,296.58z"/>
			</g>
			<polygon class="st2" points="53.85,381.89 92.05,381.89 96.17,340.07 49.73,340.07 			"/>
			
				<rect x="47.69" y="335.46" transform="matrix(-1 -1.224647e-16 1.224647e-16 -1 145.9073 680.1448)" class="st4" width="50.52" height="9.23"/>
		</g>
		<g>
			<rect x="45.68" y="144.28" class="st1" width="90.65" height="4.66"/>
			<rect x="49.85" y="127.11" class="st0" width="3.99" height="17.17"/>
			<rect x="69.16" y="127.11" class="st0" width="3.99" height="17.17"/>
			
				<rect x="92.57" y="126.9" transform="matrix(0.9855 -0.1698 0.1698 0.9855 -21.6347 18.0285)" class="st0" width="3.99" height="17.17"/>
			<rect x="54.8" y="129.37" class="st0" width="3.99" height="14.91"/>
			<rect x="63.98" y="129.37" class="st0" width="3.99" height="14.91"/>
			<rect x="87.15" y="129.37" class="st0" width="3.99" height="14.91"/>
			
				<rect x="76.07" y="129.12" transform="matrix(0.9762 -0.2169 0.2169 0.9762 -27.7639 20.1848)" class="st0" width="3.99" height="14.91"/>
			<rect x="60.25" y="126.26" class="st0" width="2" height="18.02"/>
			<rect x="84" y="126.26" class="st0" width="2" height="18.02"/>
			<rect x="108.17" y="130.69" class="st0" width="19.46" height="13.43"/>
		</g>
		<g>
			
				<rect x="45.68" y="179.05" transform="matrix(-1 -1.224647e-16 1.224647e-16 -1 182.0077 362.7493)" class="st1" width="90.65" height="4.66"/>
			
				<rect x="128.16" y="161.88" transform="matrix(-1 -1.224647e-16 1.224647e-16 -1 260.3151 340.9246)" class="st0" width="3.99" height="17.17"/>
			
				<rect x="108.85" y="161.88" transform="matrix(-1 -1.224647e-16 1.224647e-16 -1 221.6956 340.9246)" class="st0" width="3.99" height="17.17"/>
			
				<rect x="85.44" y="161.66" transform="matrix(-0.9855 -0.1698 0.1698 -0.9855 144.6961 352.8726)" class="st0" width="3.99" height="17.17"/>
			
				<rect x="123.21" y="164.14" transform="matrix(-1 -1.224647e-16 1.224647e-16 -1 250.4186 343.187)" class="st0" width="3.99" height="14.9"/>
			
				<rect x="114.03" y="164.14" transform="matrix(-1 -1.224647e-16 1.224647e-16 -1 232.061 343.187)" class="st0" width="3.99" height="14.9"/>
			
				<rect x="90.87" y="164.14" transform="matrix(-1 -1.224647e-16 1.224647e-16 -1 185.724 343.187)" class="st0" width="3.99" height="14.9"/>
			
				<rect x="101.94" y="163.89" transform="matrix(-0.9762 -0.2169 0.2169 -0.9762 168.2433 361.1396)" class="st0" width="3.99" height="14.91"/>
			
				<rect x="119.76" y="161.03" transform="matrix(-1 -1.224647e-16 1.224647e-16 -1 241.5156 340.0723)" class="st0" width="2" height="18.02"/>
			
				<rect x="96.01" y="161.03" transform="matrix(-1 -1.224647e-16 1.224647e-16 -1 194.0098 340.0723)" class="st0" width="2" height="18.02"/>
			
				<rect x="54.38" y="165.46" transform="matrix(-1 -1.224647e-16 1.224647e-16 -1 128.2161 344.3505)" class="st0" width="19.46" height="13.43"/>
		</g>
		<g>
			<rect x="264.97" y="111.73" class="st4" width="164.45" height="145.92"/>
			<rect x="269.09" y="115.73" class="st2" width="156" height="138"/>
			<polygon class="st5" points="305.7,115.73 269.09,253.43 269.09,188.73 288.42,115.73 			"/>
			<polygon class="st5" points="318.67,115.73 281.74,253.73 275.84,253.73 312.78,115.73 			"/>
			<polygon class="st5" points="425.09,202.81 425.09,224.86 417.62,253.73 411.73,253.73 			"/>
			<rect x="320.88" y="113.25" class="st4" width="2.63" height="143.56"/>
			<rect x="371.8" y="113.25" class="st4" width="2.63" height="143.56"/>
		</g>
		<g>
			<g>
				<path class="st1" d="M442.76,357.1c1.01-1.69-0.41-4.24-2.39-4.27c0.86-2.43,0.01-5.37-2.02-6.96c-0.26-0.2-0.55-0.39-0.88-0.39
					c-0.35,0-0.66,0.21-0.94,0.42c-1.86,1.33-3.72,2.67-5.57,4.01c-0.43,0.31-0.87,0.63-1.11,1.09c-1.14,2.21,2.97,5.04,1.28,6.86
					c-0.48,0.52-1.27,0.63-1.87,1.01c-1.33,0.83-1.49,2.65-2.11,4.09c-0.62,1.44-2.77,2.55-3.6,1.22c0.61-1.38-1.23-2.57-2.73-2.74
					c-1.48-0.17-3.06-0.26-3.89-1.66c-2.12,1.86-6.88-3.32-6.77-5.41c-1.75,0.13-2.93,1.77-3.32,3.4c-0.4,1.7-0.15,3.46-0.18,5.2
					c-0.05,3.38-1.14,6.69-1.08,10.07c0.05,2.63,1.06,5.55,3.47,6.61c1.16,0.51,2.47,0.51,3.74,0.5c9.14-0.06,18.29-0.12,27.43-0.18
					c0.66,0,1.35-0.02,1.93-0.32c1.24-0.65,1.5-2.27,1.61-3.66c0.49-5.96,0.98-11.92,1.47-17.88
					C444.42,357.78,443.59,357.44,442.76,357.1z"/>
			</g>
			<g>
				<g>
					<path class="st4" d="M444.36,328.11h-3.08h-8.48h-3.09h-8.47h-3.09h-8.47h-3.09h-4.79l0.35,4.3l0.25,3.07l0.65,7.99l0.37,4.59
						l0.49,6.11l0.21,2.62l0.07,0.78l0.25,3.08l0.34,4.22l0.21,2.62l0.22,2.66l0.25,3.08l0.19,2.33l0.21,2.62l0.09,1.14h5.6h4.73
						h6.83h4.73h6.83h4.73h5.61l0.09-1.14l0.21-2.61l0.19-2.35l0.25-3.08l0.22-2.65l0.21-2.62l0.34-4.23l0.25-3.07l0.06-0.78
						l0.21-2.62l0.5-6.11l0.37-4.58l0.64-8l0.25-3.07l0.35-4.3H444.36z M446.92,330.93L446.92,330.93l-0.82-0.82h0.89L446.92,330.93
						z M446.71,333.54l-0.08,1.04l-3.81,3.81l-4.37-4.37l3.91-3.91h0.92L446.71,333.54z M445.61,347.16l-2.79,2.79l-4.37-4.37
						l4.37-4.36l3.02,3.02L445.61,347.16z M405.11,344.24L405.11,344.24l3.02-3.02l4.37,4.36l-4.37,4.37l-2.78-2.79L405.11,344.24z
						 M441.41,339.8l-4.37,4.37l-4.37-4.37l4.37-4.37L441.41,339.8z M434.54,330.11h5l-2.5,2.5L434.54,330.11z M435.62,345.58
						l-4.36,4.37l-4.37-4.37l4.37-4.36L435.62,345.58z M421.11,351.36l4.37-4.36l4.36,4.36l-4.36,4.37L421.11,351.36z
						 M424.06,357.14l-4.37,4.37l-4.36-4.36l4.37-4.37L424.06,357.14z M431.26,352.78l4.36,4.37l-4.36,4.36l-4.37-4.37
						L431.26,352.78z M425.48,344.17l-4.37-4.37l4.37-4.37l4.36,4.37L425.48,344.17z M424.06,345.58l-4.36,4.37l-4.37-4.37
						l4.37-4.36L424.06,345.58z M413.91,344.17l-4.36-4.37l4.36-4.37l4.37,4.37L413.91,344.17z M413.91,347l4.37,4.36l-4.37,4.37
						l-4.36-4.37L413.91,347z M418.28,362.93l-4.37,4.36l-4.36-4.36l4.36-4.37L418.28,362.93z M419.69,364.34l4.37,4.37l-4.36,4.37
						l-4.37-4.37L419.69,364.34z M421.11,362.93l4.37-4.37l4.36,4.37l-4.36,4.36L421.11,362.93z M431.26,364.34l4.36,4.37
						l-4.36,4.37l-4.37-4.37L431.26,364.34z M437.04,370.12l4.37,4.37l-2.83,2.83h-3.08l-2.83-2.83L437.04,370.12z M432.67,362.93
						l4.37-4.37l4.37,4.37l-4.37,4.36L432.67,362.93z M432.67,351.36l4.37-4.36l4.37,4.36l-4.37,4.37L432.67,351.36z M435.62,334.02
						l-4.36,4.37l-4.37-4.37l3.91-3.91h0.92L435.62,334.02z M425.48,332.61l-2.5-2.5h4.99L425.48,332.61z M424.06,334.02l-4.36,4.37
						l-4.37-4.37l3.91-3.91h0.92L424.06,334.02z M416.41,330.11l-2.5,2.5l-2.49-2.5H416.41z M408.59,330.11l3.91,3.91l-4.37,4.37
						l-3.8-3.81l-0.08-1.04l3.42-3.43H408.59z M404.85,330.11l-0.81,0.81v0l-0.07-0.81H404.85z M404.58,337.66l2.14,2.14l-1.82,1.82
						L404.58,337.66z M405.77,352.31l-0.17-2.07v0l1.12,1.12L405.77,352.31L405.77,352.31z M405.98,354.94l2.15-2.16l4.37,4.37
						l-4.37,4.36l-1.76-1.76L405.98,354.94z M406.63,363.02l-0.01-0.19l0.1,0.1L406.63,363.02L406.63,363.02z M407.39,372.33
						l-0.55-6.7l1.29-1.29l4.37,4.37l-4.37,4.36L407.39,372.33L407.39,372.33z M407.79,377.32l-0.08-1l0.42-0.42l1.42,1.42H407.79z
						 M409.55,374.49l4.36-4.37l4.37,4.37l-2.83,2.83h-3.08L409.55,374.49z M418.28,377.32l1.42-1.42l1.42,1.42H418.28z
						 M423.94,377.32l-2.83-2.83l4.37-4.37l4.36,4.37l-2.82,2.83H423.94z M429.84,377.32l1.42-1.42l1.42,1.42H429.84z
						 M443.16,377.32h-1.76l1.42-1.42l0.42,0.42L443.16,377.32z M443.57,372.33l-0.75,0.74l-4.37-4.36l4.37-4.37l1.29,1.29
						L443.57,372.33z M444.34,362.82l-0.02,0.2l-0.09-0.09L444.34,362.82L444.34,362.82z M444.59,359.75l-1.77,1.76l-4.37-4.36
						l4.37-4.37l2.16,2.16L444.59,359.75z M445.19,352.32l-0.96-0.96l1.13-1.12L445.19,352.32z M446.38,337.65l-0.32,3.98
						l-1.83-1.83L446.38,337.65L446.38,337.65z"/>
				</g>
			</g>
			<path class="st2" d="M400.72,331.89h49.52c0.91,0,1.64-0.74,1.64-1.64v-2.28c0-0.91-0.74-1.64-1.64-1.64h-49.52
				c-0.91,0-1.64,0.74-1.64,1.64v2.28C399.08,331.16,399.82,331.89,400.72,331.89z"/>
			<path class="st2" d="M446.43,381.89h-41.9c-0.91,0-1.64-0.74-1.64-1.64v-2.28c0-0.91,0.74-1.64,1.64-1.64h41.9
				c0.91,0,1.64,0.74,1.64,1.64v2.28C448.07,381.16,447.34,381.89,446.43,381.89z"/>
		</g>
	</g>
</g>
<g id="Background_Simple" class="st6">
	<g class="st7">
		<path class="st8" d="M117.89,111.89c1.56-2.36,3.3-4.62,5.21-6.74c18.02-20.04,49.68-26.3,73.97-14.62
			c25.61,12.31,40.62,40.62,66.15,53.1c23.12,11.3,50.36,7.62,75.92,4.63s53.58-4.46,74.77,10.14
			c34.91,24.03,29.54,75.71,4.13,104.56c-15.24,17.3-37.4,28.01-60.32,30.48c-16.65,1.79-36.01,0.43-47.2,12.89
			c-5.31,5.91-7.56,13.86-10.15,21.38c-9.2,26.7-25.88,52.38-51.34,64.6c-25.46,12.22-60.45,6.75-75.49-17.15
			c-12.24-19.46-8.85-44.55-4.27-67.07c4.59-22.52,9.79-46.8,0.33-67.75c-11.08-24.54-39.07-37.18-53.23-60.08
			C103.7,159.75,104.66,131.88,117.89,111.89z"/>
		<path class="st9" d="M117.89,111.89c1.56-2.36,3.3-4.62,5.21-6.74c18.02-20.04,49.68-26.3,73.97-14.62
			c25.61,12.31,40.62,40.62,66.15,53.1c23.12,11.3,50.36,7.62,75.92,4.63s53.58-4.46,74.77,10.14
			c34.91,24.03,29.54,75.71,4.13,104.56c-15.24,17.3-37.4,28.01-60.32,30.48c-16.65,1.79-36.01,0.43-47.2,12.89
			c-5.31,5.91-7.56,13.86-10.15,21.38c-9.2,26.7-25.88,52.38-51.34,64.6c-25.46,12.22-60.45,6.75-75.49-17.15
			c-12.24-19.46-8.85-44.55-4.27-67.07c4.59-22.52,9.79-46.8,0.33-67.75c-11.08-24.54-39.07-37.18-53.23-60.08
			C103.7,159.75,104.66,131.88,117.89,111.89z"/>
	</g>
</g>
<g id="Shadow_1_">
	<ellipse id="_x3C_Path_x3E__359_" class="st10" cx="250" cy="416.24" rx="193.89" ry="11.32"/>
</g>
<g id="Window">
	<g>
		<path class="st8" d="M197.91,245.43H179.1c-20.06,0-36.32-16.26-36.32-36.32v-44.91c0-20.06,16.26-36.32,36.32-36.32h18.81
			c20.06,0,36.32,16.26,36.32,36.32v44.91C234.23,229.17,217.97,245.43,197.91,245.43z"/>
		<path class="st11" d="M197.91,245.43H179.1c-20.06,0-36.32-16.26-36.32-36.32v-44.91c0-20.06,16.26-36.32,36.32-36.32h18.81
			c20.06,0,36.32,16.26,36.32,36.32v44.91C234.23,229.17,217.97,245.43,197.91,245.43z"/>
		<path class="st8" d="M201.52,238.7h-21.57c-16.41,0-29.71-13.3-29.71-29.71v-44.69c0-16.41,13.3-29.71,29.71-29.71h21.57
			c16.41,0,29.71,13.3,29.71,29.71V209C231.23,225.4,217.93,238.7,201.52,238.7z"/>
		<path class="st12" d="M231.23,164.3v44.69c0,16.41-13.3,29.71-29.71,29.71h-21.57c-12.31,0-22.87-7.49-27.37-18.16
			c-1.51-3.55-2.34-7.45-2.34-11.55V164.3c0-16.4,13.3-29.71,29.71-29.71h21.57C217.93,134.59,231.23,147.9,231.23,164.3z"/>
		<path class="st2" d="M231.23,170.26v11.13h-33.9c-5.31,0-9.61-4.3-9.61-9.6c0-5.31,4.3-9.61,9.61-9.61c0.05,0,0.11,0.01,0.17,0.01
			c0.08-5.69,4.71-10.27,10.42-10.27c3.77,0,7.07,2.01,8.9,5c0.71-0.13,1.45-0.2,2.2-0.2c6.58,0,11.92,5.34,11.92,11.92
			c0,0.59-0.05,1.16-0.13,1.73C230.95,170.33,231.09,170.29,231.23,170.26z"/>
		<path class="st2" d="M186.57,214.92c0,3.05-2.42,5.52-5.46,5.62h-28.53c-1.51-3.55-2.34-7.45-2.34-11.55v-15.87
			c1.73-1.29,3.88-2.05,6.2-2.05c3.77,0,7.06,2.01,8.89,5.01c0.72-0.13,1.45-0.21,2.2-0.21c6.58,0,11.92,5.34,11.92,11.93
			c0,0.58-0.04,1.16-0.12,1.72c0.51-0.15,1.05-0.23,1.61-0.23C184.05,209.29,186.57,211.81,186.57,214.92z"/>
	</g>
</g>
<g id="Device">
	<g>
		<g>
			<path class="st8" d="M291.67,358.56h133.82c5.39,0,9.75-4.37,9.75-9.75V92.54c0-5.39-4.37-9.75-9.75-9.75H291.67
				c-5.39,0-9.75,4.37-9.75,9.75v256.27C281.91,354.19,286.28,358.56,291.67,358.56z"/>
			<path class="st13" d="M291.67,358.56h133.82c5.39,0,9.75-4.37,9.75-9.75V92.54c0-5.39-4.37-9.75-9.75-9.75H291.67
				c-5.39,0-9.75,4.37-9.75,9.75v256.27C281.91,354.19,286.28,358.56,291.67,358.56z"/>
			<path class="st8" d="M285.16,358.56h133.82c5.39,0,9.75-4.37,9.75-9.75V92.54c0-5.39-4.37-9.75-9.75-9.75H285.16
				c-5.39,0-9.75,4.37-9.75,9.75v256.27C275.41,354.19,279.78,358.56,285.16,358.56z"/>
			<path class="st14" d="M280.88,92.03v256.8c0,2.11,1.36,3.45,3.47,3.45H420.1c1.94,0,2.89-1.2,2.89-3.14V91.72
				c0-1.68-0.72-2.88-2.41-2.88h-33.94c-0.96,0-1.83,0.49-2.19,1.39l-1.41,3.31c-0.36,0.89-1.23,1.36-2.19,1.36h-57.78
				c-0.96,0-1.83-0.51-2.19-1.4l-1.41-3.3c-0.36-0.9-1.23-1.36-2.19-1.36h-33.45C282.01,88.84,280.88,90.18,280.88,92.03z"/>
			<circle class="st15" cx="355.26" cy="88.91" r="1.96"/>
			<path class="st15" d="M349.33,88.91c0,0.69,0.56,1.26,1.26,1.26s1.26-0.56,1.26-1.26s-0.56-1.26-1.26-1.26
				S349.33,88.21,349.33,88.91z"/>
			<path class="st15" d="M355.41,341.1v4.76h-7.5v-4.76H355.41 M355.51,339.37h-7.71c-0.9,0-1.63,0.73-1.63,1.63v4.97
				c0,0.9,0.73,1.63,1.63,1.63h7.71c0.9,0,1.63-0.73,1.63-1.63V341C357.14,340.1,356.41,339.37,355.51,339.37L355.51,339.37z"/>
			<g>
				<g>
					<rect x="405.62" y="96.56" class="st15" width="1.77" height="2.35"/>
					<rect x="408.5" y="95.78" class="st15" width="1.77" height="3.14"/>
					<rect x="411.37" y="94.99" class="st15" width="1.77" height="3.92"/>
					<rect x="414.25" y="94.21" class="st15" width="1.77" height="4.71"/>
				</g>
				<g>
					
						<rect x="296.35" y="95.71" transform="matrix(-1 -1.224647e-16 1.224647e-16 -1 593.7428 193.7643)" class="st15" width="1.05" height="2.35"/>
					<rect x="287.29" y="94.85" class="st15" width="8.34" height="4.07"/>
				</g>
			</g>
		</g>
		<g>
			<rect x="280.88" y="106.05" class="st8" width="142.12" height="227.28"/>
			<rect x="280.88" y="106.05" class="st16" width="142.12" height="227.28"/>
			<circle class="st8" cx="299.15" cy="123.85" r="11.94"/>
			<g>
				<path class="st15" d="M335.84,119.56h-16.99c-1.39,0-2.51-1.13-2.51-2.51l0,0c0-1.39,1.13-2.51,2.51-2.51h16.99
					c1.39,0,2.51,1.13,2.51,2.51l0,0C338.35,118.43,337.23,119.56,335.84,119.56z"/>
				<path class="st15" d="M368.89,127.1h-51.43c-0.61,0-1.11-0.5-1.11-1.11l0,0c0-0.61,0.5-1.11,1.11-1.11h51.43
					c0.61,0,1.11,0.5,1.11,1.11l0,0C370,126.6,369.5,127.1,368.89,127.1z"/>
				<path class="st15" d="M353.46,133.17h-36.01c-0.61,0-1.11-0.5-1.11-1.11l0,0c0-0.61,0.5-1.11,1.11-1.11h36.01
					c0.61,0,1.11,0.5,1.11,1.11l0,0C354.57,132.67,354.08,133.17,353.46,133.17z"/>
			</g>
			<rect x="280.88" y="144" class="st15" width="142.12" height="120.42"/>
			<path class="st2" d="M372.07,237.21c0-2.69,2.18-4.88,4.88-4.88c0.49,0,0.96,0.07,1.4,0.21c-0.07-0.49-0.11-0.99-0.11-1.5
				c0-5.71,4.63-10.33,10.33-10.33c0.65,0,1.29,0.06,1.9,0.18c1.59-2.6,4.44-4.34,7.71-4.34c4.95,0,8.96,3.97,9.03,8.9
				c0.05,0,0.1-0.01,0.15-0.01c4.6,0,8.32,3.73,8.32,8.32s-3.73,8.32-8.32,8.32h-30.56l0.01-0.01
				C374.18,242.01,372.07,239.86,372.07,237.21z"/>
			<path class="st2" d="M292.47,214.19c0-2.02,1.64-3.66,3.66-3.66c0.37,0,0.72,0.06,1.05,0.16c-0.05-0.37-0.08-0.74-0.08-1.13
				c0-4.29,3.47-7.76,7.76-7.76c0.49,0,0.97,0.05,1.43,0.13c1.19-1.95,3.34-3.26,5.79-3.26c3.72,0,6.73,2.99,6.78,6.69
				c0.04,0,0.07-0.01,0.11-0.01c3.45,0,6.25,2.8,6.25,6.25s-2.8,6.25-6.25,6.25h-22.96l0-0.01
				C294.06,217.79,292.47,216.18,292.47,214.19z"/>
			<path class="st2" d="M354.17,180.46c0-1.11,0.9-2,2-2c0.2,0,0.39,0.03,0.58,0.08c-0.03-0.2-0.04-0.41-0.04-0.61
				c0-2.34,1.9-4.24,4.24-4.24c0.27,0,0.53,0.03,0.78,0.07c0.65-1.07,1.82-1.78,3.17-1.78c2.03,0,3.68,1.63,3.71,3.65
				c0.02,0,0.04,0,0.06,0c1.89,0,3.42,1.53,3.42,3.42c0,1.89-1.53,3.42-3.42,3.42h-12.55l0,0
				C355.03,182.43,354.17,181.55,354.17,180.46z"/>
			<path class="st2" d="M325.24,251.14c0-1.43,1.16-2.6,2.6-2.6c0.26,0,0.51,0.04,0.75,0.11c-0.04-0.26-0.06-0.53-0.06-0.8
				c0-3.04,2.46-5.5,5.5-5.5c0.35,0,0.68,0.03,1.01,0.09c0.85-1.38,2.36-2.31,4.1-2.31c2.63,0,4.77,2.12,4.81,4.74
				c0.03,0,0.05,0,0.08,0c2.45,0,4.43,1.98,4.43,4.43c0,2.45-1.98,4.43-4.43,4.43h-16.27l0,0
				C326.36,253.69,325.24,252.55,325.24,251.14z"/>
			<g>
				<path class="st8" d="M394.18,193.76c-21.07,7.88-87.78,32.81-87.78,32.81l2,5.36c0,0,16.89,1.74,31.04-3.55
					c18.09-6.76,46.65-17.43,66.11-24.71c1.97-0.74,6.6-4.14,5.82-6.09c-1.16-2.88-8.15-2.13-8.15-2.13S398.86,192.01,394.18,193.76
					z"/>
				<path class="st8" d="M312.55,229.66l-13.91-10.06c-0.72-0.52-1.65-0.65-2.49-0.34l-1.64,0.61c-0.35,0.13-0.47,0.56-0.24,0.85
					l8.73,11.41l-2.39,0.89c-0.54,0.2-0.82,0.81-0.62,1.35l0,0c0.2,0.54,0.81,0.82,1.35,0.62l11.06-4.13L312.55,229.66z"/>
				<path class="st8" d="M372.07,207.7l-49.58-28.44c-0.69-0.4-1.52-0.46-2.27-0.19l-3.94,1.47c-0.56,0.21-0.74,0.92-0.34,1.37
					l30.11,34.12L372.07,207.7z"/>
				<path class="st8" d="M356.3,223.81l20.12-7.52l-1.26,25.53c-0.07,1.39-0.96,2.6-2.26,3.09l-2.33,0.87
					c-0.44,0.17-0.94-0.01-1.19-0.41L356.3,223.81z"/>
			</g>
			<g>
				<path class="st15" d="M308.4,283.12h-16.99c-1.39,0-2.51-1.13-2.51-2.51l0,0c0-1.39,1.13-2.51,2.51-2.51h16.99
					c1.39,0,2.51,1.13,2.51,2.51l0,0C310.92,281.99,309.79,283.12,308.4,283.12z"/>
				<path class="st15" d="M409.91,290.66H290.01c-0.61,0-1.11-0.5-1.11-1.11l0,0c0-0.61,0.5-1.11,1.11-1.11h119.89
					c0.61,0,1.11,0.5,1.11,1.11l0,0C411.02,290.16,410.52,290.66,409.91,290.66z"/>
				<path class="st15" d="M394.48,297.38H290.01c-0.61,0-1.11-0.5-1.11-1.11l0,0c0-0.61,0.5-1.11,1.11-1.11h104.47
					c0.61,0,1.11,0.5,1.11,1.11l0,0C395.6,296.88,395.1,297.38,394.48,297.38z"/>
				<path class="st15" d="M298.98,304.09h-8.97c-0.61,0-1.11-0.5-1.11-1.11l0,0c0-0.61,0.5-1.11,1.11-1.11h8.97
					c0.61,0,1.11,0.5,1.11,1.11l0,0C300.1,303.59,299.6,304.09,298.98,304.09z"/>
				<path class="st15" d="M403.15,310.81H290.01c-0.61,0-1.11-0.5-1.11-1.11l0,0c0-0.61,0.5-1.11,1.11-1.11h113.14
					c0.61,0,1.11,0.5,1.11,1.11l0,0C404.26,310.31,403.76,310.81,403.15,310.81z"/>
				<path class="st15" d="M340.58,317.52h-50.57c-0.61,0-1.11-0.5-1.11-1.11l0,0c0-0.61,0.5-1.11,1.11-1.11h50.57
					c0.61,0,1.11,0.5,1.11,1.11l0,0C341.69,317.02,341.19,317.52,340.58,317.52z"/>
			</g>
			<path class="st8" d="M371.94,166.31h-39.76c-3.65,0-6.6-2.96-6.6-6.6l0,0c0-3.65,2.96-6.6,6.6-6.6h39.76c3.65,0,6.6,2.96,6.6,6.6
				l0,0C378.54,163.36,375.58,166.31,371.94,166.31z"/>
			<g>
				<path class="st5" d="M338.84,161.34c0,0.27-0.05,0.52-0.16,0.72c-0.11,0.21-0.26,0.38-0.45,0.52c-0.19,0.14-0.42,0.25-0.67,0.32
					c-0.25,0.07-0.52,0.11-0.81,0.11h-3.14v-6.5h3.48c0.23,0,0.43,0.05,0.61,0.15c0.18,0.1,0.34,0.22,0.47,0.38
					c0.13,0.16,0.23,0.33,0.3,0.53c0.07,0.2,0.11,0.4,0.11,0.6c0,0.32-0.08,0.62-0.24,0.89c-0.16,0.28-0.39,0.48-0.7,0.62
					c0.37,0.11,0.67,0.31,0.88,0.59C338.73,160.56,338.84,160.91,338.84,161.34z M334.87,157.59v1.64h1.69
					c0.21,0,0.4-0.07,0.55-0.22c0.15-0.15,0.22-0.35,0.22-0.6c0-0.25-0.07-0.45-0.21-0.6s-0.31-0.22-0.51-0.22H334.87z
					 M337.57,161.1c0-0.12-0.02-0.23-0.06-0.33c-0.04-0.11-0.09-0.2-0.16-0.28c-0.07-0.08-0.15-0.14-0.24-0.19
					c-0.09-0.05-0.19-0.07-0.3-0.07h-1.94v1.71h1.88c0.12,0,0.22-0.02,0.33-0.06c0.1-0.04,0.19-0.1,0.26-0.18
					c0.07-0.08,0.13-0.17,0.17-0.27C337.55,161.33,337.57,161.22,337.57,161.1z"/>
				<path class="st5" d="M342.61,163.06c-0.48,0-0.91-0.09-1.3-0.28c-0.39-0.19-0.72-0.43-1-0.74c-0.28-0.31-0.49-0.66-0.65-1.06
					c-0.15-0.4-0.23-0.8-0.23-1.22c0-0.43,0.08-0.85,0.24-1.25c0.16-0.4,0.38-0.75,0.67-1.05c0.28-0.31,0.62-0.55,1.01-0.73
					c0.39-0.18,0.82-0.27,1.27-0.27c0.47,0,0.9,0.1,1.29,0.29s0.72,0.44,0.99,0.76c0.27,0.31,0.49,0.67,0.64,1.06
					c0.15,0.4,0.23,0.8,0.23,1.21c0,0.43-0.08,0.85-0.24,1.24c-0.16,0.39-0.38,0.74-0.66,1.04c-0.28,0.3-0.62,0.54-1.01,0.72
					C343.49,162.97,343.07,163.06,342.61,163.06z M340.72,159.76c0,0.28,0.04,0.55,0.13,0.82c0.09,0.26,0.21,0.49,0.37,0.7
					c0.16,0.2,0.36,0.36,0.6,0.49c0.23,0.12,0.5,0.18,0.8,0.18c0.31,0,0.58-0.06,0.81-0.19c0.23-0.13,0.43-0.29,0.6-0.5
					c0.16-0.21,0.28-0.44,0.37-0.7c0.08-0.26,0.12-0.52,0.12-0.79c0-0.28-0.04-0.55-0.13-0.82c-0.09-0.26-0.21-0.49-0.38-0.7
					c-0.16-0.2-0.36-0.36-0.6-0.48c-0.23-0.12-0.5-0.18-0.79-0.18c-0.31,0-0.58,0.06-0.82,0.19c-0.24,0.13-0.44,0.29-0.6,0.49
					c-0.16,0.2-0.28,0.44-0.36,0.7C340.76,159.23,340.72,159.5,340.72,159.76z"/>
				<path class="st5" d="M349.53,163.06c-0.48,0-0.91-0.09-1.3-0.28c-0.39-0.19-0.72-0.43-1-0.74c-0.28-0.31-0.49-0.66-0.65-1.06
					c-0.15-0.4-0.23-0.8-0.23-1.22c0-0.43,0.08-0.85,0.24-1.25c0.16-0.4,0.38-0.75,0.67-1.05c0.28-0.31,0.62-0.55,1.01-0.73
					c0.39-0.18,0.82-0.27,1.27-0.27c0.47,0,0.9,0.1,1.29,0.29s0.72,0.44,0.99,0.76c0.27,0.31,0.49,0.67,0.64,1.06
					c0.15,0.4,0.23,0.8,0.23,1.21c0,0.43-0.08,0.85-0.24,1.24c-0.16,0.39-0.38,0.74-0.66,1.04c-0.28,0.3-0.62,0.54-1.01,0.72
					C350.42,162.97,349.99,163.06,349.53,163.06z M347.65,159.76c0,0.28,0.04,0.55,0.13,0.82c0.09,0.26,0.21,0.49,0.37,0.7
					c0.16,0.2,0.36,0.36,0.6,0.49c0.23,0.12,0.5,0.18,0.8,0.18c0.31,0,0.58-0.06,0.81-0.19c0.23-0.13,0.43-0.29,0.6-0.5
					c0.16-0.21,0.28-0.44,0.37-0.7c0.08-0.26,0.12-0.52,0.12-0.79c0-0.28-0.04-0.55-0.13-0.82c-0.09-0.26-0.21-0.49-0.38-0.7
					c-0.16-0.2-0.36-0.36-0.6-0.48c-0.23-0.12-0.5-0.18-0.79-0.18c-0.31,0-0.58,0.06-0.82,0.19c-0.24,0.13-0.44,0.29-0.6,0.49
					c-0.16,0.2-0.28,0.44-0.36,0.7C347.69,159.23,347.65,159.5,347.65,159.76z"/>
				<path class="st5" d="M353.68,163.02v-6.49h1.26v3.09l2.73-3.1h1.39l-2.49,2.89l2.65,3.62h-1.42l-2.02-2.81l-0.83,0.87v1.94
					H353.68z"/>
				<path class="st5" d="M364.33,161.91v1.11h-4.52v-6.5h4.43v1.11h-3.17v1.57h2.74v1.03h-2.74v1.69H364.33z"/>
				<path class="st5" d="M365.32,163.02v-6.5h2.36c0.53,0,1,0.09,1.4,0.26c0.4,0.17,0.73,0.4,1,0.7c0.27,0.29,0.47,0.64,0.6,1.03
					c0.13,0.39,0.2,0.81,0.2,1.26c0,0.49-0.07,0.94-0.22,1.34c-0.15,0.4-0.36,0.74-0.65,1.03c-0.28,0.28-0.62,0.5-1.01,0.66
					c-0.39,0.16-0.84,0.23-1.32,0.23H365.32z M369.61,159.75c0-0.31-0.04-0.6-0.13-0.86c-0.09-0.26-0.21-0.49-0.38-0.68
					c-0.16-0.19-0.37-0.34-0.61-0.44c-0.24-0.1-0.51-0.16-0.82-0.16h-1.1v4.29h1.1c0.31,0,0.59-0.06,0.83-0.16
					c0.24-0.11,0.44-0.26,0.61-0.45c0.16-0.19,0.29-0.42,0.37-0.68C369.57,160.34,369.61,160.06,369.61,159.75z"/>
			</g>
		</g>
	</g>
</g>
<g id="Character">
	<g>
		<g>
			<path class="st14" d="M98.98,394.71l28.81-2.83v-40.49h11.42v40.48l28.93,2.84c2.87,0.28,5.06,2.7,5.06,5.58v4.33h-38.58h-2.12
				H93.92v-4.33C93.92,397.41,96.11,395,98.98,394.71z"/>
			<path class="st17" d="M98.98,394.71l28.81-2.83v-40.49h11.42v40.48l28.93,2.84c2.87,0.28,5.06,2.7,5.06,5.58v4.33h-38.58h-2.12
				H93.92v-4.33C93.92,397.41,96.11,395,98.98,394.71z"/>
			<circle class="st14" cx="170.15" cy="409.99" r="7.47"/>
			<circle class="st14" cx="96.96" cy="409.99" r="7.47"/>
			<path class="st14" d="M129.96,360.09h7.09c2.28,0,4.13-1.85,4.13-4.13v-31.93h-15.35v31.93
				C125.82,358.24,127.67,360.09,129.96,360.09z"/>
			<path class="st12" d="M129.96,360.09h7.09c2.28,0,4.13-1.85,4.13-4.13v-31.93h-15.35v31.93
				C125.82,358.24,127.67,360.09,129.96,360.09z"/>
			<g>
				<path class="st14" d="M125.15,227.5c0.17,27.66,3.02,84.23,22.9,96.53H92.79c-1.99,0-3.82-1.07-4.79-2.8
					c-4.89-8.67-18.34-37.92-16.06-94.25c0.33-8.27,7.15-14.79,15.42-14.79h22.35C118.19,212.19,125.09,219.02,125.15,227.5z"/>
				<path class="st14" d="M131.15,227.5c0.17,27.66,3.02,84.23,22.9,96.53H95.72c0,0-20.56-28.44-17.78-97.05
					c0.33-8.27,7.15-14.79,15.42-14.79h22.35C124.19,212.19,131.09,219.02,131.15,227.5z"/>
				<path class="st12" d="M131.15,227.5c0.17,27.66,3.02,84.23,22.9,96.53H95.72c0,0-20.56-28.44-17.78-97.05
					c0.33-8.27,7.15-14.79,15.42-14.79h22.35C124.19,212.19,131.09,219.02,131.15,227.5z"/>
			</g>
			<path class="st14" d="M167.97,316.48h-66.92c-2.76,0-5,2.24-5,5v6.69h76.92v-6.69C172.97,318.71,170.73,316.48,167.97,316.48z"/>
			<g>
				<path class="st14" d="M174.16,322.32H94.85c-1.11,0-2.01,0.9-2.01,2.01v1.82c0,1.11,0.9,2.01,2.01,2.01h79.31
					c1.11,0,2.01-0.9,2.01-2.01v-1.82C176.17,323.22,175.27,322.32,174.16,322.32z"/>
				<path class="st15" d="M174.16,322.32H94.85c-1.11,0-2.01,0.9-2.01,2.01v1.82c0,1.11,0.9,2.01,2.01,2.01h79.31
					c1.11,0,2.01-0.9,2.01-2.01v-1.82C176.17,323.22,175.27,322.32,174.16,322.32z"/>
			</g>
		</g>
		<g>
			<polygon class="st14" points="200.89,417.46 207.01,417.46 218.02,264.21 209.89,264.21 			"/>
			<polygon class="st16" points="200.88,417.46 207.01,417.46 217.48,271.82 218.02,264.46 209.89,264.46 209.45,271.82 			"/>
			<polygon class="st13" points="209.45,271.46 217.48,271.46 218.02,264.46 209.89,264.46 			"/>
		</g>
		<g>
			<g>
				<path class="st18" d="M218.66,377.82l-6.94-0.67c0,0-8.15-22.23-16.28-42.13c-6.56-16.05-13.1-30.57-15.33-30.66
					c-0.49-0.02-1.45,0.19-2.8,0.59c-12.41,3.63-57.63,22.38-69.14,10.67c-12.76-12.97,5.69-44.24,5.69-44.24s30.69-4.38,33,2.55
					c0.45,1.34,0.94,3.97,1.3,6.22c0.35,2.12,0.59,3.9,0.59,3.9s0.01,0,0.02-0.01c0.95-0.24,31.76-8.19,43.9,0.01
					C205,292.39,218.66,377.82,218.66,377.82z"/>
				<path class="st19" d="M229.4,389.55c-1-0.46-2.08-0.73-3.17-0.81l0,0c0,0-3.8-2.24-7.56-10.92l-4.23-0.02
					c-1.47,0.02-2.76,0.95-3.25,2.33c-0.07,0.19-0.11,0.39-0.12,0.59c0.04,1.02,0.15,2.04,0.33,3.05c0.38,3.17,2.47,9.96,2.47,9.96
					l0.72-0.18l-1.3-6.32c-0.43-2.15,1.82-0.07,2.87,2.09c1.05,2.16,2.65,4.34,7.33,3.27C228.91,391.32,231.1,390.53,229.4,389.55z"
					/>
				<path class="st18" d="M217.89,375.55c0,0,5.29,11.06,8.33,13.2c0,0-4.08,2.43-8.33-2.98c-5.49-7-6.84-5.05-6.84-5.05
					s0.23-2.4,0.66-3.57C212.54,374.89,217.89,375.55,217.89,375.55z"/>
				<g>
					<path class="st19" d="M171.17,415.9c-0.86-0.68-1.84-1.2-2.89-1.54l0,0c0,0-3.16-3.07-4.76-12.4l-4.11-1.03
						c-1.43-0.33-2.91,0.26-3.71,1.49c-0.11,0.17-0.2,0.35-0.26,0.54c-0.2,1-0.34,2.02-0.41,3.04c-0.38,3.17,0.04,10.26,0.04,10.26
						l0.74-0.01l0.23-6.45c0.09-2.19,1.79,0.36,2.29,2.71c0.5,2.35,1.54,4.85,6.34,4.92C170.28,417.5,172.6,417.26,171.17,415.9z"/>
					<path class="st18" d="M163.32,399.57c0,0,2.51,12,4.96,14.79c0,0-4.54,1.4-7.38-4.87c-3.68-8.11-5.45-6.52-5.45-6.52
						s0.79-2.27,1.49-3.31C158.28,397.66,163.32,399.57,163.32,399.57z"/>
					<path class="st20" d="M163.32,399.57c0,0,2.51,12,4.96,14.79c0,0-4.54,1.4-7.38-4.87c-3.68-8.11-5.45-6.52-5.45-6.52
						s0.79-2.27,1.49-3.31C158.28,397.66,163.32,399.57,163.32,399.57z"/>
				</g>
				<path class="st13" d="M195.44,335.02c-6.56-16.05-13.1-30.57-15.33-30.66c-0.49-0.02-1.45,0.19-2.8,0.59l0.09-3.65
					c0,0,8.59,0.29,14.92,7.15C196.61,313.1,196.17,326.74,195.44,335.02z"/>
				<g>
					<path class="st18" d="M130.21,318.74c0,0,34.78-3.65,38.41-0.51c3.8,3.29-5.38,9.93-11.67,81.43l6.58,2.31
						c0,0,26.14-77.17,25.89-87.42s-12-13.25-12-13.25S154.49,314.54,130.21,318.74z"/>
					<path class="st20" d="M189.42,314.54c0.25,10.25-25.89,87.43-25.89,87.43l-6.59-2.31c6.3-71.5,15.48-78.14,11.68-81.43
						c-0.82-0.71-3.27-1.07-6.55-1.2c-5.88-0.25-14.45,0.24-21.23,0.77c-6.03,0.46-10.63,0.94-10.63,0.94
						c3.07-0.53,6.12-1.21,9.11-1.99c20.24-5.26,37.47-15.1,38.08-15.45c0.01,0,0.02-0.01,0.02-0.01S189.17,304.29,189.42,314.54z"
						/>
				</g>
				<path class="st13" d="M177.4,301.3c-0.48,0.41-10.15,8.68-15.33,15.73c-5.88-0.25-14.45,0.24-21.23,0.77
					c-0.65-0.44-1.17-0.8-1.52-1.05C159.56,311.49,176.79,301.65,177.4,301.3z"/>
				<g>
					<path class="st14" d="M170.97,280.51l-16.7,46.21c0,0-40.23-0.99-48.14-9.1c-7.91-8.11-5.14-21.56,0.99-31.05
						c6.13-9.49,36.99-11.27,36.99-11.27l6.57,8.29C150.68,283.58,161.82,280.51,170.97,280.51z"/>
					<path class="st21" d="M170.97,280.51l-16.7,46.2c0,0-40.23-0.98-48.14-9.09c-7.91-8.11-5.14-21.57,0.99-31.06
						c6.13-9.49,36.99-11.27,36.99-11.27l3.89,4.91l2.52,3.18l0.16,0.2C150.68,283.58,161.82,280.51,170.97,280.51z"/>
				</g>
				<path class="st22" d="M150.52,283.38l-19.72,4.41c0,0,9.78-5.4,17.2-7.59L150.52,283.38z"/>
			</g>
			<g>
				<path class="st8" d="M146.86,273.93l3.82,9.65l-9.29,2.01l-4.93-5.14l-10.95,10.73l-25.05,1.2l13.4-21l-1.25-16.41l-1.39-18.29
					l-1.16-15.26c0,0,12.66-5.15,23.24-4.6c10.59,0.54,19.02,1.9,19.02,1.9C158.87,234.54,146.86,273.93,146.86,273.93z"/>
				<path class="st13" d="M146.86,273.93l3.82,9.65l-9.29,2.01l-4.93-5.14l-10.95,10.73l-25.05,1.2l13.4-21l-1.25-16.41l-1.39-18.29
					l-1.16-15.26c0,0,12.66-5.15,23.24-4.6c10.59,0.54,19.02,1.9,19.02,1.9C158.87,234.54,146.86,273.93,146.86,273.93z"/>
			</g>
			<g>
				<path class="st14" d="M84.16,216.18c0.22,0.46,0.01,0.97-0.48,1.14l-8.63,3.01c-0.48,0.17-1.06-0.07-1.28-0.53l-7.88-16.36
					c-0.22-0.46-0.05-1.09,0.44-1.26l8.63-3.01c0.49-0.17,1.1,0.18,1.32,0.64L84.16,216.18z"/>
				<path class="st23" d="M75.29,200.05l7.96,16.51c0.22,0.47,0.09,0.88-0.39,1.05l-7.32,2.56c-0.49,0.17-1.48,0.22-1.71-0.25
					l-7.98-16.57c-0.22-0.47,0.48-1.15,0.97-1.32l7.32-2.56C74.62,199.3,75.07,199.58,75.29,200.05z"/>
			</g>
			<path class="st18" d="M81.7,234.74l-5.84-11.67c0,0,4.15-9.12,2.87-10.35c-1.29-1.23-2.67-5.75-5.04-6.11
				c-2.37-0.36-5.34,10.47-5.34,11.41c0,0.94,2.18,6.43,2.18,6.43l5.14,16L81.7,234.74z"/>
			<g>
				<path class="st18" d="M163.2,210.01l-4.35,4.75l-3.37-4.35c0,0-0.59,1.48-1.5,1.56c-0.91,0.08-6.51,2.99-7.52,1.87
					c-0.31-0.35-0.59-1.12-0.83-2.01c-0.54-1.99-0.87-4.59-0.87-4.59s9.44-5.44,10.53-4.59c0.12,0.09,0.3,0.25,0.53,0.45
					C157.76,204.82,163.2,210.01,163.2,210.01z"/>
				<path class="st13" d="M155.82,203.1c-0.61,2.98-2.76,7.55-10.19,8.73c-0.54-1.99-0.87-4.59-0.87-4.59s9.44-5.44,10.53-4.59
					C155.41,202.74,155.59,202.9,155.82,203.1z"/>
			</g>
			<g>
				<path class="st8" d="M181.69,238.89c-3.02,6.72-14.38,4.28-22.2,1.63c-4.44-1.51-7.75-3.08-7.75-3.08l0.19-6.11l0.39-12.61
					l8.94,5.73l6.33,4.06l-11.57-16.54l5.5-5.36C161.52,206.61,186.44,228.35,181.69,238.89z"/>
				<path class="st13" d="M181.69,238.89c-3.02,6.72-14.38,4.28-22.2,1.63c-4.44-1.51-7.75-3.08-7.75-3.08l0.19-6.11l0.39-12.61
					l8.94,5.73l6.33,4.06l-11.57-16.54l5.5-5.36C161.52,206.61,186.44,228.35,181.69,238.89z"/>
				<path class="st13" d="M159.49,240.52c-4.44-1.51-7.75-3.08-7.75-3.08l0.19-6.11l1.96-4.75
					C153.89,226.58,158.26,233.47,159.49,240.52z"/>
				<path class="st13" d="M170.97,234.74c0,0-8.75-2.92-9.71-10.29l6.33,4.06L170.97,234.74z"/>
			</g>
			<g>
				<path class="st15" d="M125.49,251.29h3.94c0.44,0,0.79-0.35,0.79-0.79v-7.44c0-0.44-0.35-0.79-0.79-0.79h-3.94
					c-0.44,0-0.79,0.35-0.79,0.79v7.44C124.7,250.94,125.06,251.29,125.49,251.29z"/>
				
					<rect x="125.41" y="242.87" transform="matrix(-1 -1.224647e-16 1.224647e-16 -1 255.3097 491.8641)" class="st13" width="4.48" height="6.13"/>
				<rect x="127.06" y="240.1" class="st14" width="0.99" height="3.61"/>
			</g>
			<path class="st13" d="M112.61,254.97l-1.39-18.29l3.04-2.74C114.26,233.94,117.51,244.86,112.61,254.97z"/>
			<path class="st16" d="M123.54,221.42c0,0,11.71,27.65,12.58,37.79c0,0,7.71-24.09,6.79-35.96L123.54,221.42z"/>
			<g>
				<path class="st8" d="M117.41,222.67c0,0,3.13-10.88,15.01-9.89c11.89,0.99,16.45,12.14,16.45,12.14l-5.56-2.84l-6.32,18.37
					l-11.48-18.17L117.41,222.67z"/>
				<path class="st15" d="M117.41,222.67c0,0,3.13-10.88,15.01-9.89c11.89,0.99,16.45,12.14,16.45,12.14l-5.56-2.84l-6.32,18.37
					l-11.48-18.17L117.41,222.67z"/>
			</g>
			<path class="st14" d="M127.24,181.79c0,0-0.56-4.97-7.15-5.35c-6.59-0.39-12.13,4.28-8.18,12.23c3.96,7.95,4.07,16.85-1.33,17.94
				c0,0,10.6,4.9,12.53-11.78L127.24,181.79z"/>
			<path class="st14" d="M144.99,179.5c0,0-6.15-7.54-18.03,1.04c-11.88,8.57-2.56,26.51,6.69,25.98
				C142.9,205.99,144.99,179.5,144.99,179.5z"/>
			<path class="st18" d="M140.12,215.23c0.07,2.07,0.94,3.72,0.94,3.72l-4.86,14l-11.52-15.28c4.11-0.53,6.51-5.6,7.74-9.37
				c0.64-1.95,0.96-3.55,1.04-4c0.02-0.09,0.03-0.13,0.03-0.13l0.26,0.15l9.28,5.23C140.62,211.2,140.05,213.38,140.12,215.23z"/>
			<path class="st13" d="M143.03,209.55c-2.41,1.65-2.98,3.83-2.91,5.68c-4.37-1.33-6.58-4.38-7.7-6.93c0.64-1.95,0.96-3.55,1.04-4
				l0.29,0.02L143.03,209.55z"/>
			<g>
				<path class="st14" d="M134.53,179.19c0,0,6.96-5.97,15.08-2.01c8.13,3.96,7.98,16.08,2.57,20.19
					C146.76,201.48,134.53,179.19,134.53,179.19z"/>
				<path class="st18" d="M139.47,181.7c8.48-0.84,11.66,3.43,13.15,12.11c1.86,10.85,0.21,18.85-10.63,17.57
					C127.27,209.64,125.38,183.1,139.47,181.7z"/>
				<path class="st24" d="M147.09,193.88c0,0,1.4,2.1,2.82,3.27c0,0-0.61,1.23-2.14,1.18L147.09,193.88z"/>
				<g>
					<path class="st14" d="M141.83,193.7c0.09,0.7-0.22,1.3-0.68,1.36c-0.46,0.06-0.91-0.46-0.99-1.16s0.22-1.31,0.68-1.36
						S141.74,193,141.83,193.7z"/>
					<path class="st14" d="M140.64,192.6l1.44-0.78C142.08,191.82,141.49,193.19,140.64,192.6z"/>
				</g>
				<g>
					<path class="st14" d="M150.45,192.49c0.09,0.7-0.22,1.3-0.68,1.36c-0.46,0.06-0.91-0.46-0.99-1.16
						c-0.09-0.7,0.22-1.3,0.68-1.36C149.92,191.28,150.36,191.8,150.45,192.49z"/>
					<path class="st14" d="M149.27,191.39l1.44-0.78C150.71,190.61,150.11,191.98,149.27,191.39z"/>
				</g>
				<path class="st25" d="M141.16,187.85c0,0-2.41-0.07-3.55,1.65"/>
				<path class="st25" d="M147.29,186.88c0,0,1.44-0.7,3.45,0.36"/>
				<path class="st14" d="M131.61,196.91c0,0,3.27-7.36,2.14-12.68c0,0,16.13-8.53,18.65,8.44c0,0,0.14-15.31-14.48-14.2
					c-14.59,1.11-12.44,22.44-4.28,28.05C133.65,206.52,129.59,201.52,131.61,196.91z"/>
				<path class="st18" d="M133.18,198.57c-0.19-1.36-1.83-3.53-4.34-3c-2.6,0.55-3.32,6.07,3.35,6.72
					C133.14,202.38,133.58,201.41,133.18,198.57z"/>
				<g>
					<path class="st14" d="M148.87,201.65c-0.42,1.06-0.8,3.02-0.8,3.02c-0.18,0-0.37,0-0.55-0.01c-2.49-0.09-3.62-0.95-4.12-1.88
						c-0.27-0.51-0.34-1.05-0.34-1.48c-0.01-0.5,0.1-0.87,0.1-0.87c1.29,0.83,3.61,1.09,4.86,1.18
						C148.54,201.65,148.87,201.65,148.87,201.65z"/>
					<path class="st5" d="M148.02,201.61l-0.26,0.88c-2.35-0.09-3.99-0.46-4.7-1.2c-0.01-0.5,0.1-0.87,0.1-0.87
						C144.46,201.26,146.77,201.52,148.02,201.61z"/>
					<path class="st24" d="M147.52,204.65c-2.49-0.09-3.62-0.95-4.12-1.88c0.85,0.06,1.86,0.23,2.75,0.64
						C146.83,203.73,147.25,204.19,147.52,204.65z"/>
				</g>
				<path class="st8" d="M153.36,189.71c0,0-1.86-0.68-5.34,0.55l0-0.01c0,0-1.58-0.57-3.1,0.35c-1.05-0.01-3.51,0.11-6.37,1.23
					l-6.63,2.51v0.73l6.76-1.74c0.56,1.66,2.07,4.2,4.35,3.73c3.04-0.62,2.85-3.77,2.62-5.23c0.64-0.74,1.85-0.85,2.1-0.28
					c0.25,1.3,1.08,4.3,4.26,4.12C155.21,195.48,153.36,189.71,153.36,189.71z"/>
				<path class="st13" d="M153.36,189.71c0,0-1.86-0.68-5.34,0.55l0-0.01c0,0-1.58-0.57-3.1,0.35c-1.05-0.01-3.51,0.11-6.37,1.23
					l-6.63,2.51v0.73l6.76-1.74c0.56,1.66,2.07,4.2,4.35,3.73c3.04-0.62,2.85-3.77,2.62-5.23c0.64-0.74,1.85-0.85,2.1-0.28
					c0.25,1.3,1.08,4.3,4.26,4.12C155.21,195.48,153.36,189.71,153.36,189.71z"/>
				<g class="st26">
					<path class="st5" d="M152.22,190.13l-1.34,4.93c0,0,1.88,0.63,2.39-0.88c0.51-1.51-0.14-4.05-0.14-4.05
						S152.57,190.03,152.22,190.13z"/>
					<path class="st5" d="M151.79,190.09l-1.32,4.98c0,0-0.84-0.26-0.85-0.58l1.1-4.25C150.71,190.23,151.48,190.12,151.79,190.09z"
						/>
					<path class="st5" d="M143.74,191.35l-1.34,4.93c0,0,1.88,0.63,2.39-0.88c0.51-1.51-0.14-4.05-0.14-4.05
						S144.09,191.25,143.74,191.35z"/>
					<path class="st5" d="M143.31,191.3l-1.32,4.98c0,0-0.84-0.26-0.85-0.58l1.1-4.25C142.23,191.45,143,191.33,143.31,191.3z"/>
				</g>
				<path class="st27" d="M139.17,181.37c0,0,1.98,9.43-4.64,13.46"/>
				<path class="st14" d="M139.35,182.36c0,0-2.03,14.3-10.84,14.99c-8.81,0.69-0.47-15.24,3-18.33
					C133.11,177.61,138.68,175.66,139.35,182.36z"/>
			</g>
			<g>
				<path class="st8" d="M110.06,221.42c-3.79,0.53-15.92,25.2-18.83,25.2c-2.9,0.01-11.98-19.19-11.98-19.19l-7.54,5.52
					c0,0,9,30.77,19.17,29.34c11.03-1.56,23.03-19.53,23.03-19.53s0.79-6.31,0-11.85C113.12,225.37,110.06,221.42,110.06,221.42z"/>
				<path class="st13" d="M110.06,221.42c-3.79,0.53-15.92,25.2-18.83,25.2c-2.9,0.01-11.98-19.19-11.98-19.19l-7.54,5.52
					c0,0,9,30.77,19.17,29.34c11.03-1.56,23.03-19.53,23.03-19.53s0.79-6.31,0-11.85C113.12,225.37,110.06,221.42,110.06,221.42z"/>
			</g>
		</g>
		<g>
			<g>
				<g>
					<rect x="244.69" y="211.64" class="st5" width="20.84" height="32.72"/>
					<rect x="244.69" y="211.64" class="st13" width="20.84" height="32.72"/>
				</g>
				<g>
					<rect x="239.14" y="211.64" class="st5" width="20.84" height="32.72"/>
					<rect x="239.14" y="211.64" class="st20" width="20.84" height="32.72"/>
				</g>
				<polygon class="st14" points="267.11,213.38 267.11,256.89 238.23,256.89 238.23,224.47 253.22,213.38 				"/>
				<rect x="258.34" y="213.38" class="st13" width="8.77" height="43.51"/>
				<rect x="259.68" y="220.21" class="st16" width="6.53" height="3.05"/>
				<rect x="259.68" y="225.21" class="st16" width="6.53" height="9.87"/>
				<rect x="259.68" y="237.76" class="st16" width="6.53" height="2.56"/>
			</g>
			<g>
				<g>
					<rect x="229.69" y="210.64" class="st5" width="20.84" height="32.72"/>
					<rect x="229.69" y="210.64" class="st13" width="20.84" height="32.72"/>
				</g>
				<g>
					<rect x="224.14" y="210.64" class="st5" width="20.84" height="32.72"/>
					<rect x="224.14" y="210.64" class="st20" width="20.84" height="32.72"/>
				</g>
				<polygon class="st8" points="252.11,213.38 252.11,256.89 223.23,256.89 223.23,224.47 238.22,213.38 				"/>
				<rect x="243.34" y="213.38" class="st13" width="8.77" height="43.51"/>
				<rect x="244.68" y="220.21" class="st16" width="6.53" height="3.05"/>
				<rect x="244.68" y="225.21" class="st16" width="6.53" height="9.87"/>
				<rect x="244.68" y="237.76" class="st16" width="6.53" height="2.56"/>
			</g>
			<g>
				<g>
					<polygon class="st14" points="203.93,417.46 210.05,417.46 211.05,264.21 202.93,264.21 					"/>
					<polygon class="st28" points="202.92,264.46 203.08,289.18 203.92,417.46 210.05,417.46 210.89,289.18 211.05,264.46 					"/>
					<polygon class="st13" points="202.92,264.46 203.08,289.46 210.89,289.46 211.05,264.46 					"/>
				</g>
				<g>
					<polygon class="st14" points="138.89,417.46 145.01,417.46 156.02,264.21 147.89,264.21 					"/>
					<polygon class="st28" points="138.88,417.46 145.01,417.46 155.48,271.82 156.02,264.46 147.89,264.46 147.45,271.82 					"/>
					<polygon class="st13" points="147.45,271.46 155.48,271.46 156.02,264.46 147.89,264.46 					"/>
				</g>
				<g>
					<polygon class="st14" points="270.97,417.46 277.09,417.46 268.09,264.21 259.96,264.21 					"/>
					<polygon class="st28" points="259.96,264.46 260.5,271.82 270.97,417.46 277.09,417.46 268.53,271.82 268.09,264.46 					"/>
					<polygon class="st13" points="268.09,264.46 259.96,264.46 260.5,271.46 268.53,271.46 					"/>
				</g>
				<g>
					<path class="st8" d="M143.61,268.05h128.76c1.19,0,2.16-0.97,2.16-2.16v-5.51H141.45v5.51
						C141.45,267.08,142.42,268.05,143.61,268.05z"/>
					<path class="st15" d="M143.61,268.05h128.76c1.19,0,2.16-0.97,2.16-2.16v-5.51H141.45v5.51
						C141.45,267.08,142.42,268.05,143.61,268.05z"/>
				</g>
				
					<rect x="141.45" y="260.37" transform="matrix(-1 -1.224647e-16 1.224647e-16 -1 415.9819 524.5792)" class="st13" width="133.08" height="3.84"/>
				<g>
					<path class="st8" d="M137.65,261.37h140.68c1.19,0,2.16-0.97,2.16-2.16l0,0c0-1.19-0.97-2.16-2.16-2.16H137.65
						c-1.19,0-2.16,0.97-2.16,2.16l0,0C135.49,260.4,136.46,261.37,137.65,261.37z"/>
					<path class="st15" d="M137.65,261.37h140.68c1.19,0,2.16-0.97,2.16-2.16l0,0c0-1.19-0.97-2.16-2.16-2.16H137.65
						c-1.19,0-2.16,0.97-2.16,2.16l0,0C135.49,260.4,136.46,261.37,137.65,261.37z"/>
				</g>
			</g>
			<g>
				<path class="st14" d="M236.49,252.95v2.65c0,0.79-1.36,1.35-2.15,1.35h-61.79c-0.79,0-2.06-0.56-2.06-1.35v-2.65H236.49z"/>
				<path class="st15" d="M236.49,252.95v2.65c0,0.79-1.36,1.35-2.15,1.35h-61.79c-0.79,0-2.06-0.56-2.06-1.35v-2.65H236.49z"/>
				<path class="st13" d="M236.49,252.95v2.65c0,0.79-1.36,1.35-2.15,1.35h-40.76c-0.79,0-2.1-0.56-2.1-1.35v-2.65H236.49z"/>
				<path class="st14" d="M246.4,220.46l-7.36,33.48c-0.24,1.1-1.31,2.01-2.39,2.01h-40.18c-1.07,0-1.76-1.14-1.51-2.24l7.35-33.12
					c0.25-1.09,1.31-1.64,2.39-1.64h40.18C245.96,218.95,246.64,219.38,246.4,220.46z"/>
				<path class="st15" d="M246.4,220.46l-7.36,33.48c-0.24,1.1-1.31,2.01-2.39,2.01h-40.18c-1.07,0-1.76-1.14-1.51-2.24l7.35-33.12
					c0.25-1.09,1.31-1.64,2.39-1.64h40.18C245.96,218.95,246.64,219.38,246.4,220.46z"/>
				<path class="st16" d="M246.4,220.46l-7.36,33.48c-0.24,1.1-1.31,2.01-2.39,2.01h-38.82c-1.08,0-1.76-1.14-1.52-2.24l7.36-33.12
					c0.24-1.09,1.31-1.64,2.39-1.64h38.82C245.96,218.95,246.64,219.38,246.4,220.46z"/>
				<path class="st13" d="M222.76,241.92c1.87,0,3.79-2.01,4.28-4.48c0.48-2.48-0.64-4.49-2.52-4.49c-0.35,0-0.7,0.07-1.04,0.2
					c-0.44,1.93-1.75,3.55-3.19,4.09c-0.02,0.07-0.04,0.13-0.05,0.2C219.75,239.91,220.88,241.92,222.76,241.92z"/>
			</g>
		</g>
		<g>
			<g>
				<g>
					<path class="st14" d="M100.33,324.27L100.33,324.27c-1.11,0-2.02-0.91-2-2.02c0.42-22.82,7.88-37.69,10.8-42.67
						c0.59-1,1.91-1.28,2.87-0.62l1.56,1.09l-1.64-1.15l0.09,0.06c0.85,0.59,1.11,1.74,0.59,2.63c-2.64,4.56-9.85,18.95-10.27,40.68
						C102.31,323.39,101.43,324.27,100.33,324.27z"/>
				</g>
				<g class="st13">
					<path class="st5" d="M100.33,324.27L100.33,324.27c-1.11,0-2.02-0.91-2-2.02c0.42-22.82,7.88-37.69,10.8-42.67
						c0.59-1,1.91-1.28,2.87-0.62l1.56,1.09l-1.64-1.15l0.09,0.06c0.85,0.59,1.11,1.74,0.59,2.63c-2.64,4.56-9.85,18.95-10.27,40.68
						C102.31,323.39,101.43,324.27,100.33,324.27z"/>
				</g>
			</g>
			<g>
				<path class="st14" d="M125.76,282.08H70.37c-1.82,0-3.3-1.48-3.3-3.3l0,0c0-1.82,1.48-3.3,3.3-3.3h55.38
					c1.82,0,3.3,1.48,3.3,3.3l0,0C129.05,280.6,127.58,282.08,125.76,282.08z"/>
				<path class="st15" d="M125.76,282.08H70.37c-1.82,0-3.3-1.48-3.3-3.3l0,0c0-1.82,1.48-3.3,3.3-3.3h55.38
					c1.82,0,3.3,1.48,3.3,3.3l0,0C129.05,280.6,127.58,282.08,125.76,282.08z"/>
			</g>
		</g>
	</g>
</g>
</svg>
