<?xml version="1.0" encoding="utf-8"?>
<!-- Generator: Adobe Illustrator 25.4.1, SVG Export Plug-In . SVG Version: 6.00 Build 0)  -->
<svg version="1.1" id="Layer_1" xmlns="http://www.w3.org/2000/svg" xmlns:xlink="http://www.w3.org/1999/xlink" x="0px" y="0px"
	 viewBox="0 0 387.78 351.33" style="enable-background:new 0 0 387.78 351.33;" xml:space="preserve">
<style type="text/css">
	.st0{fill:#5B21B6;}
	.st1{opacity:0.9;fill:#FFFFFF;enable-background:new    ;}
	.st2{fill:#F5F5F5;}
	.st3{opacity:0.8;fill:#FFFFFF;enable-background:new    ;}
	.st4{opacity:0.3;fill:#FFFFFF;enable-background:new    ;}
	.st5{fill:#F0F0F0;}
	.st6{opacity:0.2;enable-background:new    ;}
	.st7{fill:#263238;}
	.st8{opacity:0.6;fill:#FFFFFF;enable-background:new    ;}
	.st9{opacity:0.4;fill:#FFFFFF;enable-background:new    ;}
	.st10{fill:#FFFFFF;}
	.st11{opacity:0.2;fill:#FFFFFF;enable-background:new    ;}
	.st12{fill:#E4897B;}
	.st13{fill:#2E353A;}
	.st14{opacity:0.1;enable-background:new    ;}
	.st15{opacity:0.1;fill:#FFFFFF;enable-background:new    ;}
	.st16{opacity:0.3;enable-background:new    ;}
	.st17{opacity:0.5;fill:#FFFFFF;enable-background:new    ;}
	.st18{fill:#DE5753;}
	.st19{fill:none;stroke:#263238;stroke-width:0.7198;stroke-linecap:round;stroke-linejoin:round;}
	.st20{opacity:0.3;}
	.st21{fill:none;stroke:#263238;stroke-width:0.4966;stroke-linecap:round;stroke-linejoin:round;}
	.st22{opacity:0.2;}
</style>
<g>
	<g id="freepik--background-simple--inject-2">
		<path class="st0" d="M328.3,104.02c-13.97,22.9-41.58,35.54-52.51,60.08c-9.33,20.95-4.2,45.23,0.33,67.75
			c4.53,22.52,7.86,47.62-4.21,67.08c-14.84,23.9-49.35,29.37-74.47,17.15s-41.57-37.89-50.64-64.6
			c-2.55-7.51-4.77-15.46-10.01-21.37c-11.05-12.46-30.14-11.11-46.56-12.9c-22.61-2.48-44.47-13.18-59.5-30.48
			C5.65,157.89,0.36,106.17,34.79,82.17c20.91-14.59,48.54-13.12,73.76-10.13s52.09,6.66,74.9-4.64
			c25.18-12.47,39.98-40.79,65.25-53.1c23.99-11.68,55.24-5.38,73,14.62c1.87,2.12,3.59,4.37,5.14,6.74
			C339.89,55.65,340.84,83.52,328.3,104.02z"/>
		<path class="st1" d="M328.3,104.02c-13.97,22.9-41.58,35.54-52.51,60.08c-9.33,20.95-4.2,45.23,0.33,67.75
			c4.53,22.52,7.86,47.62-4.21,67.08c-14.84,23.9-49.35,29.37-74.47,17.15s-41.57-37.89-50.64-64.6
			c-2.55-7.51-4.77-15.46-10.01-21.37c-11.05-12.46-30.14-11.11-46.56-12.9c-22.61-2.48-44.47-13.18-59.5-30.48
			C5.65,157.89,0.36,106.17,34.79,82.17c20.91-14.59,48.54-13.12,73.76-10.13s52.09,6.66,74.9-4.64
			c25.18-12.47,39.98-40.79,65.25-53.1c23.99-11.68,55.24-5.38,73,14.62c1.87,2.12,3.59,4.37,5.14,6.74
			C339.89,55.65,340.84,83.52,328.3,104.02z"/>
	</g>
	<g id="freepik--Shadow--inject-2">
		<ellipse id="freepik--path--inject-2" class="st2" cx="196.52" cy="340.01" rx="191.26" ry="11.32"/>
	</g>
	<g id="freepik--Window--inject-2">
		<path class="st0" d="M304.47,90.93v44.91c0,20.06-16.04,36.32-35.83,36.32H250.1c-19.79,0-35.83-16.26-35.83-36.32V90.93
			c0-20.06,16.04-36.32,35.83-36.32h18.55C288.43,54.61,304.47,70.87,304.47,90.93z"/>
		<path class="st3" d="M304.47,90.93v44.91c0,20.06-16.04,36.32-35.83,36.32H250.1c-19.79,0-35.83-16.26-35.83-36.32V90.93
			c0-20.06,16.04-36.32,35.83-36.32h18.55C288.43,54.61,304.47,70.87,304.47,90.93z"/>
		<path class="st0" d="M297.13,91.04v44.69c0,16.41-13.12,29.71-29.31,29.71h-21.28c-16.19,0-29.31-13.3-29.31-29.71V91.04
			c0-16.41,13.12-29.71,29.31-29.71h21.28C284,61.33,297.13,74.63,297.13,91.04z"/>
		<path class="st4" d="M217.23,91.03c0.01-16.41,13.13-29.71,29.32-29.7h21.28l0,0c16.19,0,29.31,13.3,29.31,29.71v44.73
			c-0.01,16.41-13.13,29.71-29.32,29.71h-21.28c-16.19,0-29.31-13.3-29.31-29.71V91.04C217.23,91.03,217.23,91.03,217.23,91.03z"/>
		<path class="st5" d="M217.65,97.1c-0.08-0.57-0.13-1.15-0.13-1.73c0-6.58,5.26-11.92,11.76-11.92c0.73,0,1.45,0.07,2.17,0.2
			c1.84-3.06,5.1-4.95,8.64-5c5.68-0.08,10.34,4.52,10.42,10.27h0.17c0.2-0.01,0.41-0.01,0.61,0c5.23,0.17,9.34,4.61,9.17,9.91
			c-0.17,5.3-4.55,9.47-9.78,9.3h-33.44V97L217.65,97.1z"/>
		<path class="st5" d="M266.85,136.07c0.54,0,1.07,0.08,1.59,0.23c-0.08-0.57-0.12-1.14-0.12-1.72c0-6.58,5.26-11.92,11.76-11.93
			c0.73,0,1.45,0.07,2.17,0.21c0.17-0.28,0.35-0.55,0.54-0.82c3.37-4.62,9.79-5.6,14.35-2.18v15.91c0,3.96-0.79,7.87-2.32,11.51
			h-28.14c-3-0.09-5.38-2.58-5.39-5.62C261.31,138.56,263.8,136.06,266.85,136.07z"/>
	</g>
	<g id="freepik--Device--inject-2">
		<path class="st0" d="M161.83,282.33H29.83c-5.31,0-9.62-4.37-9.62-9.75V16.31c0-5.38,4.31-9.75,9.62-9.75h132.01
			c5.31,0,9.62,4.37,9.62,9.75v256.27C171.45,277.96,167.15,282.33,161.83,282.33z"/>
		<path class="st6" d="M161.83,282.33H29.83c-5.31,0-9.62-4.37-9.62-9.75V16.31c0-5.38,4.31-9.75,9.62-9.75h132.01
			c5.31,0,9.62,4.37,9.62,9.75v256.27C171.45,277.96,167.15,282.33,161.83,282.33z"/>
		<path class="st0" d="M155.41,282.33H23.41c-5.31,0-9.62-4.37-9.62-9.75V16.31c0-5.38,4.31-9.75,9.62-9.75h132.01
			c5.31,0,9.62,4.37,9.62,9.75v256.27C165.03,277.96,160.72,282.33,155.41,282.33z"/>
		<path class="st7" d="M19.19,15.77v256.8c-0.12,1.78,1.2,3.32,2.95,3.45c0.15,0.01,0.31,0.01,0.46,0h133.92
			c1.92,0,2.86-1.2,2.86-3.14V15.49c0-1.68-0.72-2.88-2.38-2.88h-33.48c-0.93-0.04-1.79,0.51-2.15,1.39l-1.39,3.32
			c-0.37,0.86-1.22,1.4-2.15,1.36H60.82c-0.94,0.03-1.79-0.53-2.15-1.41l-1.39-3.3c-0.36-0.87-1.22-1.41-2.15-1.36h-33
			c-1.59-0.04-2.91,1.23-2.96,2.84C19.17,15.55,19.18,15.66,19.19,15.77z"/>
		<ellipse class="st8" cx="92.56" cy="12.68" rx="1.93" ry="1.96"/>
		<path class="st8" d="M86.71,12.68c0,0.7,0.56,1.26,1.24,1.26c0.69,0,1.24-0.56,1.24-1.26c0-0.7-0.56-1.26-1.24-1.26
			c0,0-0.01,0-0.01,0c-0.68,0-1.23,0.56-1.23,1.25C86.71,12.67,86.71,12.67,86.71,12.68z"/>
		<path class="st8" d="M92.7,264.87v4.76H85.3v-4.76H92.7 M92.8,263.14H85.2c-0.89,0-1.61,0.73-1.61,1.63l0,0v5
			c0,0.9,0.72,1.63,1.61,1.63l0,0h7.61c0.89,0,1.61-0.73,1.61-1.63l0,0v-5C94.41,263.86,93.69,263.14,92.8,263.14L92.8,263.14
			L92.8,263.14z"/>
		<rect x="142.23" y="20.33" class="st8" width="1.75" height="2.35"/>
		<rect x="145.08" y="19.55" class="st8" width="1.75" height="3.14"/>
		<rect x="147.91" y="18.76" class="st8" width="1.75" height="3.93"/>
		<rect x="150.75" y="17.98" class="st8" width="1.75" height="4.71"/>
		<rect x="149.77" y="19.48" class="st8" width="1.04" height="2.35"/>
		<rect x="151.51" y="18.62" class="st8" width="8.23" height="4.07"/>
		<rect x="19.19" y="29.82" class="st0" width="140.19" height="227.28"/>
		<rect x="19.19" y="29.82" class="st9" width="140.19" height="227.28"/>
		<ellipse class="st0" cx="37.21" cy="47.62" rx="11.78" ry="11.94"/>
		<path class="st8" d="M73.4,43.33H56.63c-1.37,0-2.48-1.12-2.48-2.51c0,0,0-0.01,0-0.01l0,0c0-1.39,1.11-2.51,2.48-2.51l0,0H73.4
			c1.37,0,2.48,1.12,2.48,2.51c0,0,0,0,0,0l0,0C75.88,42.19,74.78,43.32,73.4,43.33C73.41,43.33,73.4,43.33,73.4,43.33z"/>
		<path class="st8" d="M106,50.87H55.26c-0.6,0-1.09-0.5-1.09-1.11l0,0c0-0.61,0.49-1.11,1.09-1.12H106
			c0.61,0.01,1.1,0.51,1.09,1.13c0,0,0,0,0,0l0,0C107.09,50.37,106.6,50.87,106,50.87z"/>
		<path class="st8" d="M90.78,56.94H55.27c-0.61-0.01-1.09-0.51-1.09-1.12l0,0c0-0.61,0.49-1.11,1.09-1.11h35.51
			c0.6,0,1.09,0.5,1.09,1.11l0,0C91.88,56.43,91.4,56.93,90.78,56.94C90.79,56.94,90.78,56.94,90.78,56.94z"/>
		<rect x="19.19" y="67.77" class="st8" width="140.19" height="120.42"/>
		<path class="st5" d="M109.14,160.98c0.01-2.69,2.16-4.87,4.81-4.88c0.47,0,0.93,0.07,1.38,0.21c-0.07-0.5-0.11-1-0.11-1.5
			c0.01-5.7,4.56-10.32,10.19-10.33c0.63,0,1.26,0.06,1.88,0.18c2.5-4.27,7.95-5.68,12.17-3.15c2.69,1.62,4.34,4.54,4.35,7.71h0.15
			c4.53,0,8.21,3.73,8.21,8.32c0,4.59-3.67,8.32-8.21,8.32h-30.15C111.21,165.78,109.13,163.62,109.14,160.98z"/>
		<path class="st5" d="M30.62,137.96c-0.01-2.02,1.59-3.66,3.58-3.67c0.36,0,0.73,0.05,1.08,0.16c-0.05-0.37-0.08-0.75-0.08-1.13
			c0-4.29,3.43-7.76,7.65-7.76l0,0c0.47,0,0.95,0.05,1.41,0.14c1.92-3.2,6.04-4.21,9.19-2.26c1.96,1.21,3.17,3.36,3.21,5.68h0.13
			c3.4,0,6.17,2.8,6.17,6.25s-2.76,6.25-6.17,6.25H34.1C32.16,141.54,30.62,139.92,30.62,137.96z"/>
		<path class="st5" d="M91.48,104.23c0-1.1,0.88-2,1.97-2c0.19,0,0.38,0.03,0.56,0.08c-0.01-0.2-0.01-0.41,0-0.61
			c0-2.34,1.87-4.24,4.18-4.24c0.26,0,0.52,0.02,0.77,0.07c1.04-1.75,3.28-2.32,5.01-1.26c1.09,0.66,1.75,1.85,1.77,3.13h0.07
			c1.86,0.1,3.29,1.71,3.19,3.6c-0.09,1.74-1.47,3.14-3.19,3.23H93.4C92.33,106.19,91.48,105.31,91.48,104.23z"/>
		<path class="st5" d="M62.94,174.91c-0.01-1.43,1.13-2.59,2.55-2.6c0,0,0.01,0,0.01,0c0.25,0,0.5,0.04,0.74,0.11
			c-0.04-0.26-0.06-0.53-0.06-0.8c0-3.03,2.42-5.49,5.42-5.49c0,0,0.01,0,0.01,0c0.33,0,0.66,0.03,0.99,0.09
			c1.35-2.27,4.26-3,6.5-1.63c1.41,0.86,2.27,2.4,2.29,4.06h0.07c2.41,0,4.37,1.98,4.37,4.43c0,2.45-1.96,4.43-4.37,4.43H65.43
			C64.04,177.47,62.94,176.31,62.94,174.91z"/>
		<path class="st0" d="M130.95,117.53l-86.59,32.8l1.97,5.36c0,0,16.67,1.74,30.58-3.55l65.22-24.7c1.97-0.74,6.51-4.14,5.73-6.09
			c-1.14-2.88-8.04-2.13-8.04-2.13S135.57,115.77,130.95,117.53z"/>
		<path class="st0" d="M50.43,153.43L36.7,143.36c-0.71-0.52-1.63-0.64-2.46-0.33l-1.62,0.61c-0.28,0.1-0.43,0.42-0.32,0.7
			c0.02,0.05,0.05,0.1,0.08,0.15l8.62,11.41l-2.36,0.9c-0.52,0.17-0.8,0.73-0.64,1.26c0.01,0.03,0.02,0.06,0.03,0.09l0,0
			c0.17,0.53,0.72,0.81,1.24,0.64c0.03-0.01,0.06-0.02,0.09-0.03l10.91-4.13L50.43,153.43z"/>
		<path class="st0" d="M109.14,131.47l-48.91-28.43c-0.68-0.4-1.5-0.47-2.23-0.19l-3.89,1.47c-0.44,0.17-0.66,0.66-0.5,1.11
			c0.04,0.1,0.09,0.19,0.15,0.26l29.71,34.08L109.14,131.47z"/>
		<path class="st0" d="M93.58,147.58l19.85-7.52l-1.24,25.53c-0.07,1.39-0.95,2.6-2.23,3.09l-2.3,0.87
			c-0.44,0.16-0.93-0.01-1.17-0.41L93.58,147.58z"/>
		<path class="st8" d="M46.33,206.89H29.56c-1.37,0-2.48-1.12-2.48-2.51c0,0,0-0.01,0-0.01l0,0c0-1.39,1.11-2.51,2.48-2.51
			c0,0,0,0,0,0h16.77c1.37-0.01,2.48,1.11,2.49,2.5c0,0,0,0.01,0,0.01l0,0C48.82,205.76,47.7,206.89,46.33,206.89z"/>
		<path class="st8" d="M146.47,214.43H28.18c-0.6,0-1.09-0.5-1.09-1.11l0,0c0-0.61,0.49-1.11,1.09-1.12h118.27
			c0.61,0.01,1.09,0.51,1.09,1.12l0,0C147.55,213.92,147.07,214.42,146.47,214.43z"/>
		<path class="st8" d="M131.25,221.15H28.18c-0.61-0.01-1.09-0.51-1.09-1.12l0,0c0-0.61,0.49-1.11,1.09-1.11h103.06
			c0.61,0,1.1,0.5,1.1,1.11l0,0C132.35,220.64,131.86,221.15,131.25,221.15z"/>
		<path class="st8" d="M37.06,227.86h-8.88c-0.59-0.01-1.07-0.49-1.09-1.09l0,0c0-0.61,0.49-1.11,1.09-1.12h8.88
			c0.6,0.02,1.08,0.51,1.08,1.12l0,0C38.13,227.36,37.65,227.84,37.06,227.86z"/>
		<path class="st8" d="M139.8,234.58H28.18c-0.61-0.01-1.09-0.51-1.09-1.12l0,0c0-0.61,0.49-1.11,1.09-1.11H139.8
			c0.6,0,1.09,0.5,1.09,1.11l0,0C140.89,234.07,140.4,234.57,139.8,234.58z"/>
		<path class="st8" d="M78.08,241.29H28.18c-0.6,0-1.09-0.5-1.09-1.11l0,0c0-0.61,0.49-1.11,1.09-1.11l0,0h49.88
			c0.6,0,1.09,0.5,1.09,1.11l0,0C79.16,240.78,78.68,241.28,78.08,241.29z"/>
		<path class="st0" d="M109.01,90.08H69.79c-3.6,0-6.51-2.95-6.51-6.6v0l0,0c0.01-3.64,2.92-6.59,6.51-6.6h39.22
			c3.59,0.01,6.51,2.96,6.51,6.6l0,0C115.52,87.12,112.61,90.08,109.01,90.08L109.01,90.08z"/>
		<path class="st10" d="M76.36,85.11c0.01,0.25-0.05,0.5-0.16,0.72c-0.11,0.21-0.26,0.39-0.45,0.53c-0.2,0.14-0.42,0.25-0.65,0.32
			c-0.26,0.07-0.54,0.11-0.81,0.11h-3.1v-6.51h3.43c0.21,0,0.42,0.05,0.61,0.15c0.18,0.09,0.33,0.22,0.45,0.38
			c0.13,0.16,0.23,0.34,0.3,0.53c0.07,0.19,0.11,0.4,0.11,0.6c0,0.31-0.08,0.62-0.24,0.89c-0.15,0.28-0.4,0.5-0.69,0.62
			c0.35,0.1,0.66,0.3,0.88,0.59C76.26,84.35,76.37,84.72,76.36,85.11z M72.41,81.36V83h1.66c0.2,0.01,0.4-0.07,0.54-0.22
			c0.15-0.16,0.23-0.38,0.22-0.6c0.01-0.22-0.06-0.43-0.2-0.6c-0.13-0.14-0.31-0.22-0.5-0.22L72.41,81.36z M75.08,84.87
			c0-0.11-0.02-0.22-0.06-0.33c-0.03-0.1-0.09-0.2-0.16-0.28c-0.07-0.08-0.15-0.14-0.24-0.19c-0.09-0.05-0.19-0.07-0.3-0.07h-1.91
			v1.71h1.84c0.11,0,0.22-0.02,0.33-0.06c0.1-0.04,0.19-0.1,0.26-0.18c0.07-0.08,0.13-0.17,0.17-0.27c0.06-0.1,0.09-0.21,0.1-0.33
			L75.08,84.87z"/>
		<path class="st10" d="M80.08,86.83c-0.44,0.01-0.88-0.09-1.28-0.28c-0.38-0.18-0.71-0.43-0.99-0.74
			c-0.28-0.31-0.49-0.67-0.63-1.06c-0.15-0.39-0.23-0.8-0.23-1.22c0-0.43,0.08-0.85,0.24-1.24c0.16-0.39,0.38-0.75,0.66-1.06
			c0.28-0.3,0.61-0.55,0.99-0.72c0.39-0.18,0.82-0.27,1.25-0.27c0.44-0.01,0.88,0.09,1.27,0.28c0.37,0.19,0.71,0.45,0.99,0.76
			c0.27,0.32,0.48,0.67,0.63,1.06c0.15,0.39,0.22,0.8,0.23,1.21c0,0.43-0.08,0.85-0.24,1.24c-0.16,0.37-0.38,0.71-0.65,1
			c-0.28,0.3-0.61,0.55-0.99,0.72C80.94,86.7,80.51,86.81,80.08,86.83z M78.21,83.53c0,0.28,0.04,0.56,0.13,0.82
			c0.08,0.25,0.2,0.49,0.36,0.69c0.16,0.21,0.35,0.37,0.58,0.49c0.51,0.24,1.09,0.24,1.6,0c0.22-0.13,0.42-0.3,0.58-0.5
			c0.16-0.21,0.29-0.45,0.36-0.7c0.08-0.26,0.12-0.53,0.12-0.8c0-0.28-0.04-0.55-0.13-0.81c-0.08-0.25-0.21-0.49-0.37-0.7
			c-0.16-0.2-0.36-0.36-0.58-0.48c-0.24-0.12-0.51-0.18-0.78-0.18c-0.28,0-0.56,0.06-0.81,0.19c-0.23,0.12-0.43,0.29-0.58,0.49
			c-0.16,0.21-0.28,0.45-0.36,0.7C78.25,82.99,78.21,83.26,78.21,83.53L78.21,83.53z"/>
		<path class="st10" d="M86.9,86.83c-0.44,0.01-0.88-0.09-1.27-0.28c-0.38-0.18-0.71-0.43-0.99-0.74c-0.28-0.31-0.5-0.67-0.64-1.06
			c-0.15-0.39-0.23-0.8-0.23-1.22c0-0.43,0.08-0.85,0.25-1.24c0.15-0.39,0.37-0.75,0.65-1.06c0.28-0.3,0.62-0.54,0.99-0.72
			c0.39-0.18,0.82-0.27,1.25-0.27c0.44-0.01,0.88,0.09,1.27,0.28c1.11,0.58,1.81,1.73,1.83,3c0,0.43-0.08,0.85-0.24,1.24
			c-0.16,0.37-0.38,0.71-0.65,1c-0.28,0.3-0.61,0.55-0.99,0.72C87.76,86.68,87.34,86.8,86.9,86.83z M85.05,83.53
			c0,0.28,0.04,0.55,0.12,0.82c0.08,0.25,0.21,0.49,0.37,0.69c0.15,0.21,0.35,0.38,0.58,0.49c0.5,0.24,1.09,0.24,1.59,0
			c0.23-0.13,0.43-0.3,0.59-0.5c0.16-0.21,0.28-0.45,0.36-0.7c0.09-0.26,0.13-0.53,0.13-0.8c0-0.27-0.05-0.55-0.13-0.81
			c-0.08-0.25-0.21-0.49-0.37-0.7c-0.16-0.2-0.36-0.37-0.59-0.48c-0.24-0.12-0.51-0.19-0.78-0.18c-0.28,0-0.55,0.06-0.8,0.19
			c-0.23,0.12-0.43,0.29-0.59,0.49c-0.16,0.21-0.28,0.45-0.36,0.7C85.09,82.99,85.05,83.26,85.05,83.53z"/>
		<path class="st10" d="M91,86.77v-6.5h1.3v3.09l2.69-3.1h1.37l-2.46,2.89l2.6,3.62h-1.45l-1.97-2.82l-0.82,0.87v2L91,86.77z"/>
		<path class="st10" d="M101.5,85.68v1.09h-4.46v-6.51h4.37v1.11h-3.13v1.57h2.7v1h-2.7v1.7L101.5,85.68z"/>
		<path class="st10" d="M102.48,86.77v-6.51h2.33c0.47-0.01,0.94,0.08,1.38,0.26c0.37,0.16,0.71,0.39,0.99,0.69
			c0.26,0.29,0.46,0.63,0.59,1c0.14,0.4,0.21,0.82,0.21,1.25c0.01,0.46-0.07,0.92-0.23,1.35c-0.27,0.78-0.87,1.39-1.64,1.68
			c-0.41,0.17-0.86,0.25-1.3,0.24L102.48,86.77z M106.71,83.5c0-0.29-0.04-0.58-0.13-0.86c-0.07-0.25-0.2-0.48-0.36-0.67
			c-0.17-0.19-0.37-0.34-0.6-0.44c-0.26-0.11-0.53-0.16-0.81-0.16h-1.09v4.29h1.09c0.28,0,0.56-0.05,0.82-0.17
			c0.23-0.1,0.43-0.26,0.59-0.45c0.17-0.2,0.29-0.43,0.36-0.68c0.09-0.27,0.13-0.55,0.13-0.84L106.71,83.5z"/>
	</g>
	<g id="freepik--Character--inject-2">
		<path class="st7" d="M350.48,324.07v4.32h-78.23v-4.32c0-2.89,2.16-5.3,4.99-5.59l28.54-2.84v-40.48h11.27v40.49l28.42,2.83
			C348.31,318.75,350.48,321.17,350.48,324.07z"/>
		<path class="st11" d="M350.48,324.07v4.32h-78.23v-4.32c0-2.89,2.16-5.3,4.99-5.59l28.54-2.84v-40.48h11.27v40.49l28.42,2.83
			C348.31,318.75,350.48,321.17,350.48,324.07z"/>
		<ellipse class="st7" cx="275.29" cy="333.76" rx="7.37" ry="7.47"/>
		<ellipse class="st7" cx="347.47" cy="333.76" rx="7.37" ry="7.47"/>
		<path class="st7" d="M307.91,283.89c-2.25-0.02-4.06-1.88-4.04-4.16v-31.9l0,0h15.1l0,0v31.93l0,0c0,2.28-1.82,4.13-4.07,4.13
			h-6.91C307.96,283.89,307.93,283.89,307.91,283.89z"/>
		<path class="st4" d="M307.91,283.89c-2.25-0.02-4.06-1.88-4.04-4.16v-31.9l0,0h15.1l0,0v31.93l0,0c0,2.28-1.82,4.13-4.07,4.13
			h-6.91C307.96,283.89,307.93,283.89,307.91,283.89z"/>
		<path class="st7" d="M334.91,135.96h22.04c8.17-0.01,14.88,6.52,15.22,14.79c2.25,56.33-11.02,85.58-15.84,94.25
			c-0.96,1.73-2.77,2.8-4.73,2.8h-54.51c19.63-12.3,22.42-68.87,22.59-96.53C319.74,142.79,326.54,135.95,334.91,135.96z"/>
		<path class="st7" d="M328.99,136.01h22.04c8.17-0.01,14.88,6.52,15.22,14.79c2.74,68.56-17.54,97-17.54,97h-57.54
			c19.63-12.3,22.42-68.87,22.59-96.53C313.85,142.81,320.64,136,328.99,136.01z"/>
		<path class="st4" d="M328.99,136.01h22.04c8.17-0.01,14.88,6.52,15.22,14.79c2.74,68.56-17.54,97-17.54,97h-57.54
			c19.63-12.3,22.42-68.87,22.59-96.53C313.85,142.81,320.64,136,328.99,136.01z"/>
		<path class="st7" d="M348.43,245.25v6.69l0,0h-75.96l0,0v-6.69c0-2.76,2.21-5,4.93-5h66.09
			C346.22,240.25,348.43,242.48,348.43,245.25z"/>
		<path class="st7" d="M351.55,248.1v1.82c0,1.11-0.89,2.01-1.98,2.01h-78.23c-1.1,0-1.98-0.9-1.98-2.01v-1.82
			c0-1.11,0.89-2.01,1.98-2.01h78.23C350.66,246.09,351.55,246.99,351.55,248.1z"/>
		<path class="st8" d="M351.55,248.1v1.82c0,1.11-0.89,2.01-1.98,2.01h-78.23c-1.1,0-1.98-0.9-1.98-2.01v-1.82
			c0-1.11,0.89-2.01,1.98-2.01h78.23C350.66,246.09,351.55,246.99,351.55,248.1z"/>
		<polygon class="st7" points="236.08,187.98 228.06,187.98 238.93,341.22 244.96,341.22 		"/>
		<polygon class="st9" points="236.52,195.59 236.08,188.22 228.06,188.22 228.6,195.59 238.93,341.22 244.97,341.22 		"/>
		<polygon class="st6" points="236.08,188.22 228.06,188.22 228.6,195.22 236.52,195.22 		"/>
		<path class="st12" d="M253.09,207.82c11.98-8.19,42.37-0.24,43.3,0l0,0c0,0,0.24-1.78,0.58-3.9c0.29-2.1,0.72-4.18,1.28-6.22
			c2.28-6.93,32.55-2.55,32.55-2.55s18.2,31.24,5.61,44.24c-11.35,11.71-55.96-7.04-68.2-10.67c-0.89-0.32-1.82-0.52-2.76-0.59
			c-2.2,0.09-8.65,14.66-15.12,30.66c-8.02,19.9-16.06,42.13-16.06,42.13l-6.85,0.67C227.43,301.59,240.91,216.16,253.09,207.82z"/>
		<path class="st13" d="M222.7,316.38c4.62,1.07,6.2-1.1,7.23-3.27s3.26-4.24,2.82-2.09l-1.28,6.31l0.71,0.18
			c1.01-3.28,1.83-6.62,2.44-10c0.17-0.99,0.27-1.99,0.33-3c-0.01-0.2-0.05-0.4-0.12-0.59c-0.49-1.38-1.77-2.31-3.22-2.33h-4.17
			c-3.71,8.69-7.46,10.92-7.46,10.92l0,0c-1.09,0.08-2.15,0.35-3.14,0.81C215.16,314.3,217.32,315.09,222.7,316.38z"/>
		<path class="st12" d="M234.28,300.94c0.33,1.17,0.55,2.36,0.66,3.57c0,0-1.33-2-6.75,5c-4.19,5.44-8.22,3-8.22,3
			c3-2.13,8.22-13.19,8.22-13.19S233.47,298.66,234.28,300.94z"/>
		<path class="st13" d="M280.67,341.21c4.73-0.07,5.75-2.57,6.25-4.92s2.17-4.9,2.26-2.71l0.23,6.45h0.73
			c0.22-3.42,0.24-6.84,0.05-10.26c-0.07-1.01-0.21-2.01-0.4-3c-0.06-0.19-0.15-0.37-0.26-0.54c-0.79-1.23-2.25-1.82-3.66-1.49
			l-4.05,1c-1.57,9.33-4.69,12.4-4.69,12.4l0,0c-1.03,0.33-2,0.85-2.85,1.53C272.87,341.03,275.16,341.27,280.67,341.21z"/>
		<path class="st12" d="M288.28,323.43c0.59,1.06,1.08,2.16,1.47,3.31c0,0-1.75-1.58-5.38,6.53c-2.8,6.26-7.28,4.87-7.28,4.87
			c2.46-2.8,4.93-14.8,4.93-14.8S286.99,321.43,288.28,323.43z"/>
		<path class="st14" d="M288.28,323.43c0.59,1.06,1.08,2.16,1.47,3.31c0,0-1.75-1.58-5.38,6.53c-2.8,6.26-7.28,4.87-7.28,4.87
			c2.46-2.8,4.93-14.8,4.93-14.8S286.99,321.43,288.28,323.43z"/>
		<path class="st6" d="M253.42,232.2c3.87-4.13,9.11-6.68,14.72-7.15l0.09,3.65c-0.89-0.32-1.82-0.52-2.76-0.59
			c-2.2,0.09-8.65,14.66-15.12,30.66C249.62,250.51,249.18,236.87,253.42,232.2z"/>
		<path class="st12" d="M268.11,225.06c0,0-11.59,3-11.84,13.25s25.54,87.43,25.54,87.43l6.5-2.31
			c-6.21-71.5-15.27-78.14-11.52-81.43c3.58-3.14,37.89,0.51,37.89,0.51C290.73,238.31,268.11,225.06,268.11,225.06z"/>
		<path class="st14" d="M268.13,225.07L268.13,225.07c11.87,6.64,24.48,11.82,37.56,15.44c2.95,0.79,5.96,1.47,8.99,2
			c0,0-4.57-0.48-10.49-0.94c-6.96-0.63-13.95-0.89-20.94-0.77c-3.24,0.13-5.65,0.49-6.46,1.2c-3.75,3.29,5.31,9.93,11.52,81.43
			l-6.5,2.31c0,0-25.79-77.18-25.54-87.43S268.13,225.07,268.13,225.07z"/>
		<path class="st6" d="M305.7,240.52l-1.5,1.05c-6.96-0.63-13.95-0.89-20.94-0.77c-5.11-7.05-14.65-15.32-15.12-15.73
			C280.01,231.71,292.62,236.9,305.7,240.52z"/>
		<path class="st7" d="M294.44,207.35l6.48-8.29c0,0,30.44,1.78,36.5,11.27s8.79,22.97,0.99,31.06s-47.49,9.09-47.49,9.09
			l-16.47-46.2C283.5,204.28,294.44,207.35,294.44,207.35z"/>
		<path class="st15" d="M294.49,207.35l0.16-0.2l2.49-3.18l3.79-4.91c0,0,30.44,1.78,36.5,11.27s8.79,22.97,0.99,31.06
			s-47.49,9.09-47.49,9.09l-16.47-46.2C283.5,204.28,294.49,207.35,294.49,207.35z"/>
		<path class="st16" d="M297.14,203.97c7.32,2.19,16.97,7.59,16.97,7.59l-19.45-4.41L297.14,203.97z"/>
		<path class="st0" d="M292.89,142.52c0,0,8.31-1.35,18.74-1.9c10.44-0.55,22.92,4.6,22.92,4.6l-1.14,15.26l-1.37,18.29l-1.18,16.37
			l13.22,21l-24.71-1.2l-10.85-10.73l-4.86,5.14l-9.16-2l3.77-9.65C298.26,197.7,286.41,158.31,292.89,142.52z"/>
		<path class="st6" d="M292.89,142.52c0,0,8.31-1.35,18.74-1.9c10.44-0.55,22.92,4.6,22.92,4.6l-1.14,15.26l-1.37,18.29l-1.18,16.37
			l13.22,21l-24.71-1.2l-10.85-10.73l-4.86,5.14l-9.16-2l3.77-9.65C298.26,197.7,286.41,158.31,292.89,142.52z"/>
		<path class="st7" d="M367.87,123.62c0.23-0.5,0.77-0.76,1.3-0.65l8.51,3c0.02,0.01,0.03,0.02,0.05,0.02
			c0.44,0.23,0.61,0.78,0.39,1.23l-7.77,16.34c-0.23,0.47-0.77,0.7-1.26,0.53l-8.51-3c-0.04-0.01-0.08-0.03-0.12-0.05
			c-0.39-0.2-0.55-0.69-0.35-1.09L367.87,123.62z"/>
		<path class="st17" d="M369.95,123.24l7.21,2.56c0.51,0.17,1.2,0.85,0.99,1.32l-7.89,16.57c-0.22,0.46-1.2,0.42-1.69,0.25
			l-7.21-2.56c-0.07-0.02-0.14-0.05-0.21-0.09c-0.31-0.21-0.4-0.64-0.19-0.96l7.89-16.51C369.03,123.37,369.5,123.12,369.95,123.24z
			"/>
		<path class="st12" d="M368.49,164.2l5.07-16c0,0,2.15-5.51,2.15-6.43s-3.02-11.75-5.32-11.39c-2.3,0.36-3.69,4.83-4.93,6.11
			c-1.24,1.28,2.83,10.35,2.83,10.35l-5.75,11.67L368.49,164.2z"/>
		<path class="st12" d="M289.42,126.87c0.23-0.2,0.4-0.36,0.52-0.45c1.08-0.85,10.39,4.59,10.39,4.59c-0.2,1.55-0.49,3.08-0.86,4.59
			c-0.14,0.71-0.42,1.39-0.82,2c-1,1.13-6.52-1.79-7.42-1.87s-1.48-1.56-1.48-1.56l-3.32,4.35l-4.29-4.75
			C282.14,133.77,287.51,128.59,289.42,126.87z"/>
		<path class="st6" d="M289.94,126.42c1.08-0.85,10.39,4.59,10.39,4.59c-0.2,1.55-0.49,3.08-0.86,4.59
			c-7.33-1.18-9.45-5.73-10.05-8.73C289.65,126.67,289.83,126.51,289.94,126.42z"/>
		<path class="st0" d="M283.82,130.41l5.43,5.36l-11.43,16.51l6.24-4.06l8.82-5.73l0.38,12.61l0.19,6.11
			c-2.49,1.16-5.05,2.19-7.64,3.08c-7.71,2.65-18.94,5.09-21.9-1.63C259.22,152.12,283.82,130.41,283.82,130.41z"/>
		<path class="st6" d="M283.82,130.41l5.43,5.36l-11.43,16.51l6.24-4.06l8.82-5.73l0.38,12.61l0.19,6.11
			c-2.49,1.16-5.05,2.19-7.64,3.08c-7.71,2.65-18.94,5.09-21.9-1.63C259.22,152.12,283.82,130.41,283.82,130.41z"/>
		<path class="st6" d="M291.29,150.35l1.97,4.75l0.19,6.11c-2.49,1.16-5.05,2.19-7.64,3.08
			C287.01,157.24,291.29,150.35,291.29,150.35z"/>
		<path class="st6" d="M277.78,152.28l6.24-4.06c-0.95,7.37-9.58,10.29-9.58,10.29L277.78,152.28z"/>
		<path class="st8" d="M314.66,174.28v-7.44c0-0.44,0.35-0.79,0.78-0.79h3.89c0.43,0,0.78,0.35,0.78,0.79v7.44
			c0,0.44-0.35,0.79-0.78,0.79h-3.89C315.01,175.07,314.66,174.71,314.66,174.28z"/>
		<rect x="314.99" y="166.63" class="st6" width="4.42" height="6.13"/>
		<rect x="316.82" y="163.87" class="st7" width="0.98" height="3.61"/>
		<path class="st6" d="M330.46,157.74l2.96,2.74l-1.37,18.29C327.21,168.63,330.46,157.74,330.46,157.74z"/>
		<path class="st9" d="M302.16,146.98c-0.91,11.9,6.7,36,6.7,36c0.86-10.14,12.41-37.79,12.41-37.79L302.16,146.98z"/>
		<path class="st0" d="M319.31,146.04l-11.32,18.18l-6.21-18.37l-5.48,2.84c0,0,4.51-11.15,16.23-12.14
			c11.72-0.99,14.8,9.89,14.8,9.89L319.31,146.04z"/>
		<path class="st8" d="M319.31,146.04l-11.32,18.18l-6.21-18.37l-5.48,2.84c0,0,4.51-11.15,16.23-12.14
			c11.72-0.99,14.8,9.89,14.8,9.89L319.31,146.04z"/>
		<path class="st7" d="M321.68,118.6c1.9,16.69,12.36,11.78,12.36,11.78c-5.33-1.09-5.2-9.99-1.3-17.94s-1.57-12.58-8.07-12.23
			c-6.5,0.35-7.05,5.35-7.05,5.35L321.68,118.6z"/>
		<path class="st7" d="M311.25,130.27c9.12,0.5,18.29-17.47,6.6-26c-11.69-8.53-17.76-1-17.76-1S302.13,129.77,311.25,130.27z"/>
		<path class="st12" d="M302.11,133.32l9.15-5.23l0.26-0.15v0.13c0.24,1.35,0.57,2.69,0.99,4c1.21,3.77,3.58,8.84,7.64,9.37
			l-11.36,15.28l-4.79-14c0.55-1.16,0.87-2.43,0.93-3.72C305.06,136.73,303.99,134.55,302.11,133.32z"/>
		<path class="st6" d="M311.26,128.07h0.29c0.24,1.35,0.57,2.69,0.99,4c-1.37,3.36-4.16,5.9-7.6,6.93c0.14-2.28-0.96-4.46-2.87-5.68
			L311.26,128.07z"/>
		<path class="st7" d="M293.01,121.15c-5.36-4.12-5.44-16.19,2.54-20.19s14.88,2,14.88,2S298.37,125.27,293.01,121.15z"/>
		<path class="st12" d="M303.06,135.14c-10.69,1.29-12.32-6.72-10.49-17.56c1.47-8.68,4.61-12.95,12.97-12.11
			C319.45,106.87,317.58,133.41,303.06,135.14z"/>
		<path class="st18" d="M297.37,122.1c-0.87,0.04-1.68-0.41-2.11-1.18c1.05-0.97,1.98-2.07,2.77-3.27L297.37,122.1z"/>
		<path class="st7" d="M304.22,116.31c0.45,0.06,0.76,0.66,0.67,1.36s-0.53,1.22-0.99,1.16s-0.76-0.67-0.68-1.36
			C303.31,116.77,303.76,116.25,304.22,116.31z"/>
		<path class="st7" d="M302.98,115.59l1.42,0.78C303.56,116.96,302.98,115.59,302.98,115.59z"/>
		<path class="st7" d="M295.7,115.11c0.46,0.05,0.77,0.67,0.68,1.36s-0.53,1.2-0.99,1.15s-0.76-0.66-0.67-1.36
			C294.81,115.57,295.23,115.06,295.7,115.11z"/>
		<path class="st7" d="M294.46,114.38l1.42,0.78C295.05,115.77,294.46,114.38,294.46,114.38z"/>
		<path class="st19" d="M307.38,113.27c-0.85-1.07-2.15-1.68-3.5-1.65"/>
		<path class="st19" d="M294.43,111.01c1.02-0.64,2.27-0.77,3.4-0.36"/>
		<path class="st7" d="M311.29,130.29c8.05-5.61,10.19-26.94-4.22-28.05c-14.41-1.11-14.27,14.21-14.27,14.21
			c2.49-16.98,18.4-8.45,18.4-8.45c-1.12,5.32,2.11,12.68,2.11,12.68C315.3,125.29,311.29,130.29,311.29,130.29z"/>
		<path class="st12" d="M312.74,126.06c6.58-0.65,5.87-6.17,3.3-6.72c-2-0.36-3.91,0.98-4.29,3
			C311.36,125.18,311.79,126.15,312.74,126.06z"/>
		<path class="st7" d="M297.12,125.38c1.66-0.04,3.3-0.45,4.79-1.18c0.07,0.28,0.11,0.57,0.1,0.86c0.01,0.51-0.11,1.02-0.35,1.48
			c-0.48,0.94-1.6,1.8-4.05,1.88h-0.54c-0.19-1.02-0.45-2.02-0.79-3C296.28,125.42,296.6,125.42,297.12,125.38z"/>
		<path class="st10" d="M301.93,124.2c0.07,0.28,0.11,0.57,0.1,0.86c-0.69,0.74-2.32,1.11-4.64,1.2l-0.26-0.88
			C298.8,125.33,300.43,124.93,301.93,124.2z"/>
		<path class="st18" d="M298.96,127.19c0.86-0.37,1.77-0.59,2.7-0.65c-0.48,0.94-1.6,1.8-4.05,1.88
			C297.92,127.87,298.39,127.44,298.96,127.19z"/>
		<path class="st0" d="M293.19,119.45c3.14,0.18,3.96-2.82,4.2-4.12c0.24-0.57,1.43-0.46,2.06,0.28c-0.23,1.47-0.37,4.61,2.58,5.23
			c2.25,0.47,3.74-2.07,4.29-3.73l6.67,1.74v-0.72l-6.54-2.52c-2-0.8-4.13-1.22-6.28-1.23c-0.93-0.54-2.03-0.66-3.06-0.35l0,0
			c-3.42-1.23-5.27-0.55-5.27-0.55S290.05,119.27,293.19,119.45z"/>
		<path class="st6" d="M293.19,119.45c3.14,0.18,3.96-2.82,4.2-4.12c0.24-0.57,1.43-0.46,2.06,0.28c-0.23,1.47-0.37,4.61,2.58,5.23
			c2.25,0.47,3.74-2.07,4.29-3.73l6.67,1.74v-0.72l-6.54-2.52c-2-0.8-4.13-1.22-6.28-1.23c-0.93-0.54-2.03-0.66-3.06-0.35l0,0
			c-3.42-1.23-5.27-0.55-5.27-0.55S290.05,119.27,293.19,119.45z"/>
		<g class="st20">
			<path class="st10" d="M292.07,113.9c-0.34,1.33-0.38,2.71-0.13,4.06c0.49,1.51,2.35,0.87,2.35,0.87l-1.31-4.93
				C292.67,113.84,292.37,113.84,292.07,113.9z"/>
			<path class="st10" d="M294.46,114.03l1.09,4.25c-0.01,0.32-0.84,0.58-0.84,0.58l-1.31-5
				C293.7,113.89,294.46,114.03,294.46,114.03z"/>
			<path class="st10" d="M300.43,115.12c-0.34,1.32-0.39,2.71-0.14,4.05c0.5,1.51,2.36,0.88,2.36,0.88l-1.31-4.93
				C301.04,115.06,300.73,115.06,300.43,115.12z"/>
			<path class="st10" d="M302.83,115.24l1.09,4.25c-0.01,0.32-0.85,0.58-0.85,0.58l-1.3-5C302.07,115.1,302.83,115.24,302.83,115.24
				z"/>
		</g>
		<path class="st21" d="M310.42,118.6c-6.55-4.03-4.58-13.46-4.58-13.46"/>
		<path class="st7" d="M313.4,102.8c3.41,3.09,11.68,19.04,2.96,18.33c-8.72-0.71-10.69-15-10.69-15
			C306.33,99.43,311.82,101.38,313.4,102.8z"/>
		<path class="st0" d="M330.78,154.73c-0.44,3.94-0.44,7.91,0,11.85c0,0,11.84,17.97,22.69,19.53
			c10.04,1.44,18.92-29.34,18.92-29.34l-7.42-5.57c0,0-8.98,19.2-11.84,19.19s-14.83-24.67-18.57-25.2
			C332.58,148.02,331.29,151.29,330.78,154.73z"/>
		<path class="st6" d="M330.78,154.73c-0.44,3.94-0.44,7.91,0,11.85c0,0,11.84,17.97,22.69,19.53
			c10.04,1.44,18.92-29.34,18.92-29.34l-7.42-5.57c0,0-8.98,19.2-11.84,19.19s-14.83-24.67-18.57-25.2
			C332.58,148.02,331.29,151.29,330.78,154.73z"/>
		<rect x="181.2" y="135.41" class="st10" width="20.56" height="32.72"/>
		<rect x="181.2" y="135.41" class="st6" width="20.56" height="32.72"/>
		<rect x="186.67" y="135.41" class="st10" width="20.56" height="32.72"/>
		<rect x="186.67" y="135.41" class="st14" width="20.56" height="32.72"/>
		<polygon class="st7" points="193.34,137.15 208.13,148.24 208.13,180.66 179.64,180.66 179.64,137.15 		"/>
		<rect x="179.64" y="137.15" class="st6" width="8.65" height="43.51"/>
		<rect x="180.53" y="143.98" class="st9" width="6.44" height="3.05"/>
		<rect x="180.53" y="148.98" class="st9" width="6.44" height="9.87"/>
		<rect x="180.53" y="161.53" class="st9" width="6.44" height="2.56"/>
		<rect x="196" y="134.41" class="st10" width="20.56" height="32.72"/>
		<rect x="196" y="134.41" class="st6" width="20.56" height="32.72"/>
		<rect x="201.47" y="134.41" class="st10" width="20.56" height="32.72"/>
		<rect x="201.47" y="134.41" class="st14" width="20.56" height="32.72"/>
		<polygon class="st0" points="208.14,137.15 222.93,148.24 222.93,180.66 194.44,180.66 194.44,137.15 		"/>
		<rect x="194.44" y="137.15" class="st6" width="8.65" height="43.51"/>
		<rect x="195.32" y="143.98" class="st9" width="6.44" height="3.05"/>
		<rect x="195.32" y="148.98" class="st9" width="6.44" height="9.87"/>
		<rect x="195.32" y="161.53" class="st9" width="6.44" height="2.56"/>
		<polygon class="st7" points="242.95,187.98 234.93,187.98 235.93,341.22 241.96,341.22 		"/>
		<polygon class="st17" points="234.94,188.22 235.1,212.95 235.93,341.22 241.97,341.22 242.8,212.95 242.96,188.22 		"/>
		<polygon class="st6" points="234.94,188.22 235.1,213.22 242.8,213.22 242.96,188.22 		"/>
		<polygon class="st7" points="297.24,187.98 289.22,187.98 300.09,341.22 306.12,341.22 		"/>
		<polygon class="st17" points="297.68,195.59 297.24,188.22 289.22,188.22 289.76,195.59 300.09,341.22 306.13,341.22 		"/>
		<polygon class="st6" points="297.24,188.22 289.22,188.22 289.76,195.22 297.68,195.22 		"/>
		<polygon class="st7" points="186.69,187.98 178.67,187.98 169.79,341.22 175.83,341.22 		"/>
		<polygon class="st17" points="178.67,188.22 178.24,195.59 169.8,341.22 175.83,341.22 186.16,195.59 186.69,188.22 		"/>
		<polygon class="st6" points="178.24,195.22 186.16,195.22 186.69,188.22 178.67,188.22 		"/>
		<path class="st0" d="M172.32,189.7v-5.51l0,0H303.6l0,0v5.47l0,0c0,1.19-0.95,2.16-2.13,2.16H174.45
			C173.29,191.82,172.34,190.87,172.32,189.7z"/>
		<path class="st8" d="M172.32,189.7v-5.51l0,0H303.6l0,0v5.47l0,0c0,1.19-0.95,2.16-2.13,2.16H174.45
			C173.29,191.82,172.34,190.87,172.32,189.7z"/>
		<rect x="172.32" y="184.14" class="st6" width="131.28" height="3.84"/>
		<path class="st0" d="M307.35,185.14c1.18,0,2.13-0.97,2.13-2.16l0,0l0,0c0-1.19-0.95-2.16-2.13-2.16H168.57l0,0
			c-1.18,0-2.13,0.97-2.13,2.16l0,0l0,0c0,1.19,0.95,2.16,2.13,2.16H307.35L307.35,185.14z"/>
		<path class="st8" d="M307.35,185.14c1.18,0,2.13-0.97,2.13-2.16l0,0l0,0c0-1.19-0.95-2.16-2.13-2.16H168.57l0,0
			c-1.18,0-2.13,0.97-2.13,2.16l0,0l0,0c0,1.19,0.95,2.16,2.13,2.16H307.35L307.35,185.14z"/>
		<path class="st7" d="M274.95,176.77v2.65c0,0.79-1.25,1.35-2.03,1.35h-60.95c-0.78,0-2.12-0.56-2.12-1.35v-2.65H274.95z"/>
		<path class="st8" d="M274.95,176.77v2.65c0,0.79-1.25,1.35-2.03,1.35h-60.95c-0.78,0-2.12-0.56-2.12-1.35v-2.65H274.95z"/>
		<path class="st6" d="M254.24,176.77v2.65c0,0.79-1.28,1.35-2.07,1.35h-40.2c-0.78,0-2.12-0.56-2.12-1.35v-2.65H254.24z"/>
		<path class="st7" d="M201.57,142.77h39.64c1.05-0.09,2.03,0.56,2.36,1.58l7.25,33.12c0.03,0.11,0.05,0.22,0.06,0.33
			c0.09,0.96-0.6,1.82-1.55,1.91h-39.61c-1.13-0.06-2.09-0.88-2.35-2l-7.3-33.48C199.83,143.15,200.46,142.77,201.57,142.77z"/>
		<path class="st8" d="M201.57,142.77h39.64c1.05-0.09,2.03,0.56,2.36,1.58l7.25,33.12c0.03,0.11,0.05,0.22,0.06,0.33
			c0.09,0.96-0.6,1.82-1.55,1.91h-39.61c-1.13-0.06-2.09-0.88-2.35-2l-7.3-33.48C199.83,143.15,200.46,142.77,201.57,142.77z"/>
		<path class="st9" d="M201.57,142.71h38.28c1.07-0.09,2.05,0.6,2.36,1.64l7.26,33.12c0.03,0.11,0.05,0.22,0.06,0.34
			c0.09,0.96-0.61,1.81-1.56,1.9h-38.25c-1.13-0.06-2.09-0.88-2.35-2l-7.3-33.48C199.83,143.15,200.46,142.77,201.57,142.71z"/>
		<path class="st6" d="M225.79,161.21c0-0.07,0-0.13,0-0.2c-1.63-0.78-2.8-2.3-3.15-4.09c-0.31-0.13-0.65-0.19-0.99-0.2
			c-1.85,0-2.97,2.01-2.49,4.49s2.38,4.48,4.22,4.48C225.24,165.69,226.36,163.68,225.79,161.21z"/>
		<path class="st7" d="M342.18,246.09c-0.41-21.73-7.53-36.12-10.13-40.68c-0.51-0.9-0.25-2.05,0.59-2.64l0.09-0.06l-1.62,1.15
			l1.54-1.09c0.04-0.03,0.08-0.06,0.13-0.08c0.94-0.57,2.15-0.26,2.71,0.69c2.88,4.97,10.24,19.84,10.65,42.66c0,1.1-0.88,2-1.97,2
			l0,0C343.08,248.04,342.2,247.17,342.18,246.09z"/>
		<g class="st22">
			<path class="st10" d="M342.18,246.09c-0.41-21.73-7.53-36.12-10.13-40.68c-0.51-0.9-0.25-2.05,0.59-2.64l0.09-0.06l-1.62,1.15
				l1.54-1.09c0.04-0.03,0.08-0.06,0.13-0.08c0.94-0.57,2.15-0.26,2.71,0.69c2.88,4.97,10.24,19.84,10.65,42.66c0,1.1-0.88,2-1.97,2
				l0,0C343.08,248.04,342.2,247.17,342.18,246.09z"/>
		</g>
		<path class="st7" d="M319.06,205.85c-1.79-0.01-3.24-1.48-3.24-3.3l0,0c0,0,0-0.01,0-0.01c0-1.82,1.45-3.29,3.25-3.29h54.64
			c0,0,0.01,0,0.01,0c1.79,0.01,3.24,1.48,3.24,3.3l0,0c0,0,0,0.01,0,0.01c0,1.82-1.45,3.29-3.25,3.29H319.06
			C319.07,205.85,319.07,205.85,319.06,205.85z"/>
		<path class="st8" d="M319.06,205.85c-1.79-0.01-3.24-1.48-3.24-3.3l0,0c0,0,0-0.01,0-0.01c0-1.82,1.45-3.29,3.25-3.29h54.64
			c0,0,0.01,0,0.01,0c1.79,0.01,3.24,1.48,3.24,3.3l0,0c0,0,0,0.01,0,0.01c0,1.82-1.45,3.29-3.25,3.29H319.06
			C319.07,205.85,319.07,205.85,319.06,205.85z"/>
	</g>
</g>
</svg>
